<svg aria-hidden="true" style="position: absolute; width: 0; height: 0; overflow: hidden;" version="1.1" xmlns="http://www.w3.org/2000/svg" xmlns:xlink="http://www.w3.org/1999/xlink">
<defs>
<symbol id="icon-apartments" viewBox="0 0 32 32">
<path d="M31 27.644v-22.407h-9.038v-2.245h-11.925v2.245h-9.038v22.407h-1v1.364h32v-1.364h-1zM12.356 27.644h-9.991v-21.042h9.991v21.042zM18.28 27.644h-4.56v-2.366h4.56v2.366zM18.28 5.662h-1.568v2.171h1.568v1.33h-1.568v2.171h1.568v1.331h-1.568v2.171h1.568v1.33h-1.568v2.171h1.568v1.33h-1.568v2.17h1.568v2.161h-4.56v-2.161h1.568v-2.17h-1.568v-1.33h1.568v-2.171h-1.568v-1.33h1.568v-2.171h-1.568v-1.331h1.568v-2.171h-1.568v-1.33h1.568v-2.171h-1.568v-0.425h-2.403v-0.966h9.367v0.966h-2.403v0.425zM29.636 27.644h-9.991v-21.042h9.991v21.042z"></path>
<path d="M20.968 8.085h2.913v2.315h-2.913v-2.315z"></path>
<path d="M25.4 8.085h2.913v2.315h-2.913v-2.315z"></path>
<path d="M20.968 11.819h2.913v2.315h-2.913v-2.315z"></path>
<path d="M25.4 11.819h2.913v2.315h-2.913v-2.315z"></path>
<path d="M20.968 15.554h2.913v2.315h-2.913v-2.315z"></path>
<path d="M25.4 15.554h2.913v2.315h-2.913v-2.315z"></path>
<path d="M20.968 19.288h2.913v2.315h-2.913v-2.315z"></path>
<path d="M25.4 19.288h2.913v2.315h-2.913v-2.315z"></path>
<path d="M20.968 23.023h2.913v2.315h-2.913v-2.315z"></path>
<path d="M25.4 23.023h2.913v2.315h-2.913v-2.315z"></path>
<path d="M3.688 8.085h2.913v2.315h-2.913v-2.315z"></path>
<path d="M8.119 8.085h2.913v2.315h-2.913v-2.315z"></path>
<path d="M3.688 11.819h2.913v2.315h-2.913v-2.315z"></path>
<path d="M8.119 11.819h2.913v2.315h-2.913v-2.315z"></path>
<path d="M3.688 15.554h2.913v2.315h-2.913v-2.315z"></path>
<path d="M8.119 15.554h2.913v2.315h-2.913v-2.315z"></path>
<path d="M3.688 19.288h2.913v2.315h-2.913v-2.315z"></path>
<path d="M8.119 19.288h2.913v2.315h-2.913v-2.315z"></path>
<path d="M3.688 23.023h2.913v2.315h-2.913v-2.315z"></path>
<path d="M8.119 23.023h2.913v2.315h-2.913v-2.315z"></path>
</symbol>
</defs>
</svg>
