<svg width="100" height="100" viewBox="0 0 100 100" fill="none" xmlns="http://www.w3.org/2000/svg">
<g clip-path="url(#clip0_1_24)">
<path d="M41.5789 96.8422H7.89473C5.28281 96.8422 3.15781 94.7172 3.15781 92.1053C3.15781 89.4934 5.28262 87.3684 7.89473 87.3684H18.4945C19.4561 87.3684 20.3592 86.9932 21.0377 86.3123C21.7297 85.6178 22.109 84.6904 22.1055 83.7063V83.6842C22.1055 81.0725 24.2303 78.9473 26.8424 78.9473H33.1582C34.0303 78.9473 34.7371 78.2406 34.7371 77.3684C34.7371 76.4961 34.0301 75.7895 33.1582 75.7895H26.8424C22.4891 75.7895 18.9477 79.3309 18.9477 83.6842V83.7117C18.9482 83.9063 18.8561 84.0279 18.801 84.0834C18.7168 84.1678 18.6139 84.2106 18.4947 84.2106H7.89473C3.54141 84.2106 0 87.752 0 92.1053C0 96.4586 3.54141 100 7.89473 100H41.5789C42.451 100 43.1578 99.2934 43.1578 98.4211C43.1578 97.5488 42.451 96.8422 41.5789 96.8422Z" fill="#D9D9D9"/>
<path d="M94.2105 23.1578H87.0127C86.4205 21.9143 85.151 21.0525 83.6842 21.0525H73.1578C71.691 21.0525 70.4217 21.9143 69.8293 23.1578H62.6314C61.7594 23.1578 61.0525 23.8646 61.0525 24.7367C61.0525 25.6088 61.7596 26.3156 62.6314 26.3156H69.4736V26.7461C69.4736 29.7955 71.7182 32.3139 74.6953 32.6037C75.0623 32.6394 75.4281 32.6406 75.7895 32.6074V39.3725C75.7895 42.5619 78.2404 45.1477 81.3695 45.259C82.9535 45.3121 84.4584 44.7402 85.5992 43.6395C86.74 42.5385 87.3686 41.0588 87.3686 39.4734V38.9471H92.4883L89.7086 70.9158C89.633 71.7844 90.2762 72.5502 91.1447 72.6256C91.1912 72.6297 91.2375 72.6314 91.2834 72.6314C92.0936 72.6314 92.7832 72.0113 92.8545 71.1891L95.6744 38.7594C98.1602 38.1098 100 35.8447 100 33.1578V28.9473C100 25.7551 97.4029 23.1578 94.2105 23.1578ZM84.2104 24.7369V39.474C84.2104 40.1947 83.9246 40.8672 83.4059 41.368C82.8875 41.8682 82.2051 42.1246 81.4812 42.1039C80.084 42.0541 78.9471 40.8289 78.9471 39.373V30.485C78.9471 29.9203 78.6459 29.399 78.1568 29.117C77.9127 28.9764 77.6404 28.906 77.3682 28.906C77.0949 28.906 76.8217 28.9769 76.577 29.1187C76.0975 29.3965 75.5523 29.5152 75.001 29.4613C73.6723 29.3318 72.6314 28.1394 72.6314 26.7467V24.7371C72.6314 24.4469 72.8676 24.2107 73.1578 24.2107H83.6842C83.9742 24.2107 84.2105 24.4467 84.2105 24.7371L84.2104 24.7369ZM96.8422 33.1578C96.8422 34.6049 95.6684 35.7828 94.2227 35.7895C94.2125 35.7895 94.2027 35.7895 94.1924 35.7895H87.3686V26.3158H94.2107C95.6619 26.3158 96.8424 27.4963 96.8424 28.9475V33.1578H96.8422Z" fill="#D9D9D9"/>
<path d="M71.0525 38.9475C71.9246 38.9475 72.6314 38.2408 72.6314 37.3685C72.6314 36.4963 71.9244 35.7896 71.0525 35.7896H62.6314C61.7594 35.7896 61.0525 36.4963 61.0525 37.3685C61.0525 38.2408 61.7596 38.9475 62.6314 38.9475H71.0525Z" fill="#D9D9D9"/>
<path d="M97.4869 80.7193C94.2873 75.2561 88.3545 71.5789 81.5789 71.5789H68.9473C67.4961 71.5789 66.3156 70.3984 66.3156 68.9473V66.842C66.3156 66.2768 66.2328 65.7166 66.0723 65.1797C67.4963 64.1238 68.4209 62.4311 68.4209 60.5262C68.4209 57.334 65.8238 54.7367 62.6314 54.7367H60V54.2104C60 52.7434 59.1385 51.474 57.8947 50.8816V5.78945C57.8947 2.59727 55.2977 0 52.1053 0C48.9129 0 46.3158 2.59727 46.3158 5.78945V23.1578H26.8422C23.6498 23.1578 21.0527 25.7551 21.0527 28.9473V33.1578C21.0527 35.8445 22.8926 38.1096 25.3781 38.76L28.198 71.1895C28.2736 72.0586 29.0385 72.7051 29.908 72.6256C30.7768 72.5502 31.4197 71.7846 31.3441 70.9158L28.5645 38.9475H46.3158V50.882C45.0721 51.4744 44.2105 52.7437 44.2105 54.2107V54.7371H41.5789C38.3865 54.7371 35.7895 57.3344 35.7895 60.5266C35.7895 62.4314 36.7141 64.1242 38.1381 65.1801C37.9775 65.7168 37.8947 66.277 37.8947 66.8424V81.5793C37.8947 91.7367 46.1584 100 56.3158 100H96.3158C98.3473 100 100 98.3475 100 96.3162V90C100 86.6758 99.1146 83.5543 97.568 80.859C97.5434 80.8109 97.5162 80.7645 97.4869 80.7193ZM49.4736 5.78945C49.4736 4.33828 50.6541 3.15781 52.1053 3.15781C53.5564 3.15781 54.7369 4.33828 54.7369 5.78945V50.5264H49.4738V5.78945H49.4736ZM26.8604 35.7895C26.8502 35.7896 26.8398 35.7896 26.8301 35.7895C25.3846 35.783 24.2105 34.6051 24.2105 33.1578V28.9473C24.2105 27.4961 25.391 26.3156 26.8422 26.3156H46.3158V35.7893H26.8604V35.7895ZM96.8422 96.3158C96.8422 96.6061 96.6061 96.8422 96.3158 96.8422H73.1578C64.7416 96.8422 57.8947 89.9953 57.8947 81.5791V71.0527C57.8947 70.1805 57.1877 69.4738 56.3158 69.4738C55.4437 69.4738 54.7369 70.1805 54.7369 71.0527V81.5791C54.7369 87.8326 57.8691 93.3684 62.6471 96.6998C55.2164 95.6779 49.4738 89.2863 49.4738 81.5791V71.0527C49.4738 70.1805 48.7668 69.4738 47.8949 69.4738C47.0229 69.4738 46.316 70.1805 46.316 71.0527V81.5791C46.316 87.8326 49.4482 93.3684 54.2262 96.7002C46.7955 95.6783 41.0529 89.2867 41.0529 81.5795V66.8426C41.0529 66.6586 41.0723 66.4758 41.1098 66.2973C41.2645 66.31 41.4213 66.3162 41.5793 66.3162H54.2109C55.083 66.3162 55.7898 65.6096 55.7898 64.7373C55.7898 63.865 55.0828 63.1584 54.2109 63.1584H41.5793C40.1281 63.1584 38.9477 61.9779 38.9477 60.5268C38.9477 59.0756 40.1281 57.8951 41.5793 57.8951H45.7898C46.6619 57.8951 47.3688 57.1885 47.3688 56.3162V54.2109C47.3688 53.9207 47.6049 53.6846 47.8951 53.6846H56.3162C56.6062 53.6846 56.8426 53.9205 56.8426 54.2109V56.3162C56.8426 57.1885 57.5496 57.8951 58.4215 57.8951H62.632C64.0832 57.8951 65.2637 59.0756 65.2637 60.5268C65.2637 61.9779 64.0832 63.1584 62.632 63.1584H60.5268C59.6547 63.1584 58.9478 63.865 58.9478 64.7373C58.9478 65.6096 59.6549 66.3162 60.5268 66.3162H62.632C62.7898 66.3162 62.9465 66.31 63.1016 66.2973C63.1393 66.4758 63.1584 66.6586 63.1584 66.8426V68.9479C63.1584 72.14 65.7555 74.7373 68.9478 74.7373H81.5795C86.1738 74.7373 90.3008 76.7781 93.1014 80.0004H73.1578C70.5687 80.0004 68.0119 79.3408 65.7635 78.0932C65.001 77.6703 64.0396 77.9449 63.6168 78.7076C63.1936 79.4699 63.4688 80.4311 64.2313 80.8541C66.9473 82.3613 70.034 83.1578 73.1578 83.1578H95.2211C96.033 84.7703 96.5676 86.5461 96.7611 88.4209H73.158C70.5691 88.4209 68.0125 87.7615 65.7643 86.5139C65.0016 86.0904 64.0406 86.3662 63.6176 87.1285C63.1943 87.891 63.4695 88.8522 64.232 89.275C66.9477 90.782 70.0342 91.5783 73.1578 91.5783H96.842V96.3158H96.8422Z" fill="#D9D9D9"/>
</g>
<defs>
<clipPath id="clip0_1_24">
<rect width="100" height="100" fill="white"/>
</clipPath>
</defs>
</svg>
