<svg aria-hidden="true" style="position: absolute; width: 0; height: 0; overflow: hidden;" version="1.1" xmlns="http://www.w3.org/2000/svg" xmlns:xlink="http://www.w3.org/1999/xlink">
<defs>
<symbol id="icon-email-footer" viewBox="0 0 32 32">
<path d="M31.917 7.017c-0.144-0.727-0.466-1.392-0.916-1.941-0.095-0.12-0.194-0.227-0.301-0.334-0.797-0.801-1.916-1.301-3.138-1.301h-23.122c-1.222 0-2.337 0.5-3.138 1.301-0.107 0.107-0.206 0.214-0.301 0.334-0.45 0.549-0.772 1.214-0.913 1.941-0.058 0.28-0.087 0.57-0.087 0.863v16.24c0 0.623 0.132 1.222 0.368 1.763 0.219 0.516 0.541 0.983 0.933 1.375 0.099 0.099 0.198 0.19 0.306 0.281 0.768 0.636 1.759 1.020 2.832 1.020h23.122c1.074 0 2.069-0.384 2.833-1.024 0.107-0.087 0.207-0.178 0.306-0.277 0.392-0.392 0.714-0.859 0.937-1.375v-0.004c0.236-0.541 0.363-1.136 0.363-1.759v-16.24c0-0.293-0.029-0.583-0.083-0.863zM2.907 6.348c0.397-0.396 0.929-0.636 1.532-0.636h23.122c0.603 0 1.14 0.24 1.532 0.636 0.070 0.071 0.136 0.149 0.195 0.227l-12.119 10.562c-0.334 0.293-0.747 0.438-1.169 0.438-0.417 0-0.83-0.145-1.168-0.438l-12.115-10.567c0.054-0.078 0.12-0.152 0.19-0.223zM2.271 24.12v-15.199l8.77 7.651-8.766 7.643c-0.004-0.029-0.004-0.062-0.004-0.095zM27.561 26.287h-23.122c-0.393 0-0.76-0.103-1.073-0.285l9.249-8.060 0.863 0.751c0.723 0.628 1.627 0.946 2.522 0.946 0.9 0 1.805-0.318 2.527-0.946l0.863-0.751 9.245 8.060c-0.314 0.181-0.681 0.285-1.074 0.285zM29.729 24.12c0 0.033 0 0.066-0.004 0.095l-8.766-7.638 8.77-7.651v15.195z"></path>
</symbol>
<symbol id="icon-facebook-footer" viewBox="0 0 32 32">
<path d="M16 0c-8.838 0-16 7.162-16 16s7.162 16 16 16 16-7.163 16-16-7.163-16-16-16zM25.988 25.981c-1.3 1.3-2.806 2.319-4.488 3.025-1.738 0.738-3.587 1.106-5.5 1.106-1.906 0-3.756-0.375-5.5-1.106-1.681-0.712-3.194-1.731-4.487-3.025-1.3-1.3-2.319-2.806-3.025-4.488-0.738-1.738-1.113-3.587-1.113-5.494s0.375-3.756 1.106-5.5c0.712-1.681 1.731-3.194 3.025-4.487 1.306-1.3 2.813-2.319 4.494-3.031 1.744-0.731 3.594-1.106 5.5-1.106s3.756 0.375 5.5 1.106c1.681 0.712 3.194 1.731 4.488 3.025 1.3 1.3 2.319 2.806 3.025 4.488 0.738 1.738 1.106 3.588 1.106 5.5 0 1.906-0.375 3.756-1.106 5.5-0.712 1.681-1.731 3.194-3.025 4.488z"></path>
<path d="M18.113 10.544c0.644 0 1.331 0.2 1.331 0.2l0.413-2.45c0 0-0.875-0.3-2.962-0.3-1.281 0-2.025 0.487-2.569 1.206-0.512 0.681-0.531 1.775-0.531 2.481v1.606h-1.656v2.394h1.656v8.313h3.1v-8.313h2.456l0.181-2.394h-2.637v-1.869c0-0.644 0.575-0.875 1.219-0.875z"></path>
</symbol>
<symbol id="icon-phone" viewBox="0 0 32 32">
<path d="M19.635 18.487l-2.451-0.28c-0.589-0.067-1.167 0.135-1.582 0.55l-1.775 1.775c-2.731-1.389-4.969-3.618-6.359-6.359l1.785-1.785c0.415-0.415 0.618-0.994 0.55-1.582l-0.28-2.432c-0.116-0.975-0.936-1.708-1.92-1.708h-1.669c-1.090 0-1.997 0.907-1.93 1.997 0.511 8.24 7.102 14.821 15.332 15.332 1.090 0.068 1.997-0.839 1.997-1.93v-1.669c0.010-0.975-0.724-1.795-1.698-1.911z"></path>
</symbol>
</defs>
</svg>
