<svg width="180" height="199" viewBox="0 0 180 199" fill="none" xmlns="http://www.w3.org/2000/svg">
<g clip-path="url(#clip0_2_71)">
<path d="M96.2276 80.5882C101.071 75.6656 101.06 31.5 111.517 43.093C116.56 49.5 115.101 58.4258 110.83 74.5C107.581 85.001 104.344 90.4729 102.736 96.4101C101.127 102.347 102.52 106.161 103.452 106.97C104.385 107.779 116.07 67.4946 128.985 77.5C135.57 83.4946 129.5 89.5 122.5 98.5C112 110 115 104 105.732 121.477C102.723 125.858 103.504 131.378 105.157 130.965C106.81 130.553 120.834 109.085 127.5 108.82C134.166 108.556 136.887 118.831 128.985 126.5C121.082 134.169 109.152 139.848 107.353 143.583C105.554 147.318 107.573 148.378 109.543 148.063C111.513 147.748 126.248 137.31 131 137C135.752 136.69 129.318 148.298 127.5 151C125.682 153.702 120.103 159.372 117.5 159.496C114.897 159.621 109.82 158.037 108.127 159.496C106.433 160.955 109.533 166.941 109.127 168.253C108.72 169.564 103.148 171.29 101.96 170.025C100.772 168.76 101.842 163.647 99.937 161.864C98.0322 160.081 96.0357 163.832 91 163C85.9643 162.168 69.6131 151.315 68 146C66.3869 140.685 90.7921 150.965 95.4396 149.642C98.5885 148.177 99.2784 145.055 96.8461 144.099C94.4138 143.142 69.3238 140.482 65.5 134.5C61.6762 128.518 57.5556 121.351 61 120.5C64.4444 119.649 87.5171 134.804 88.6146 130.375C85.5 115 63 116.5 55.5 109.5C49 101.5 44.3244 93.795 48 91.5C51.6756 89.205 73.1178 111.532 79.1775 108.82C85.2372 106.109 77.3115 101.067 73.5 97.5C69.6885 93.9327 57.6393 91 52.7196 82.5C49.8302 77.5078 46.4357 71.1988 51.375 69.2853C56.3143 67.3717 74.2671 86.6562 76.5397 84.0145C78.8123 81.3729 64.0564 73.0678 59.9499 63C55.8433 52.9322 48.3302 41.5 53.5595 37.5C58.3302 35.5 63.3309 40.155 64.0595 43.093C64.7881 46.0309 68.5437 57.0722 71.5742 62.2107C74.6046 67.3492 75.7516 71.3942 76.8881 70.0742C78.0246 68.7542 78.8888 60.027 76.8881 55.5C74.8873 50.9729 71.5742 44.8332 70.0595 39.5C66.5595 31.5 67.0595 19.5 81.0595 22.5C93.2178 25.1053 93.2963 37.0881 94.1876 44.8332C95.0789 52.5783 93.7828 59.1343 93.2178 66.8943C92.6527 74.6544 94.0654 82.786 96.2276 80.5882Z" fill="#519372"/>
</g>
<defs>
<clipPath id="clip0_2_71">
<rect width="142.639" height="168.822" fill="white" transform="matrix(-0.970265 0.242046 0.242046 0.970265 138.398 0)"/>
</clipPath>
</defs>
</svg>
