<svg width="200" height="200" viewBox="0 0 200 200" fill="none" xmlns="http://www.w3.org/2000/svg">
<circle cx="100" cy="100" r="100" fill="#D9D9D9"/>
<path d="M37.04 127.88C46.32 127.88 50.96 124.44 50.96 117.56C50.96 114.76 50.24 112.56 48.8 110.96C47.44 109.36 44.88 107.96 41.12 106.76L31.28 103.52C19.52 99.68 13.64 91.96 13.64 80.36C13.64 73.64 15.72 68.12 19.88 63.8C24.12 59.4 30.72 57.2 39.68 57.2C43.44 57.2 47.16 57.64 50.84 58.52C54.52 59.32 58.44 60.64 62.6 62.48L58.16 74.84C54.32 73.32 51.04 72.24 48.32 71.6C45.68 70.88 42.96 70.52 40.16 70.52C36.48 70.52 33.56 71.2 31.4 72.56C29.32 73.84 28.28 76.2 28.28 79.64C28.28 82.2 29 84.32 30.44 86C31.96 87.6 34.44 88.96 37.88 90.08L47.72 93.32C53.64 95.32 58.08 98.24 61.04 102.08C64.08 105.84 65.6 110.84 65.6 117.08C65.6 124.28 63.32 130.12 58.76 134.6C54.2 139 47.04 141.2 37.28 141.2C33.44 141.2 29.44 140.76 25.28 139.88C21.2 138.92 16.72 137.32 11.84 135.08L16.28 122.72C20.76 124.64 24.56 126 27.68 126.8C30.88 127.52 34 127.88 37.04 127.88ZM92.5494 128.48C95.7494 128.48 98.3894 127.72 100.469 126.2C102.549 124.68 103.829 122.64 104.309 120.08C104.789 117.44 104.189 114.52 102.509 111.32L113.549 104.6L131.789 140H116.789L111.509 128.12C110.389 131.96 108.069 135.12 104.549 137.6C101.109 140 96.6694 141.2 91.2294 141.2C84.1094 141.2 78.5094 139.2 74.4294 135.2C70.4294 131.2 68.4294 126.04 68.4294 119.72C68.4294 115.24 69.5894 111.04 71.9094 107.12C74.3094 103.2 78.3494 99.4 84.0294 95.72C80.1094 92.68 77.2694 89.64 75.5094 86.6C73.7494 83.48 72.8694 80.16 72.8694 76.64C72.8694 73.04 73.7094 69.76 75.3894 66.8C77.0694 63.84 79.5094 61.52 82.7094 59.84C85.9894 58.08 89.9894 57.2 94.7094 57.2C101.509 57.2 106.909 58.96 110.909 62.48C114.909 66 116.909 70.88 116.909 77.12C116.909 80.88 116.149 84.12 114.629 86.84C113.189 89.56 111.189 92.04 108.629 94.28C106.069 96.44 103.069 98.6 99.6294 100.76L91.2294 106.16C87.6294 108.48 85.2694 110.72 84.1494 112.88C83.0294 115.04 82.4694 117.12 82.4694 119.12C82.4694 122.32 83.3894 124.68 85.2294 126.2C87.1494 127.72 89.5894 128.48 92.5494 128.48ZM86.1894 77.36C86.1894 79.12 86.6694 81.08 87.6294 83.24C88.6694 85.4 90.4294 87.6 92.9094 89.84C95.7094 88 97.8294 86.48 99.2694 85.28C100.709 84 101.709 82.8 102.269 81.68C102.829 80.56 103.109 79.32 103.109 77.96C103.109 75.08 102.309 73 100.709 71.72C99.1094 70.36 97.1494 69.68 94.8294 69.68C92.4294 69.68 90.3894 70.32 88.7094 71.6C87.0294 72.88 86.1894 74.8 86.1894 77.36ZM188.384 58.4L162.464 140H147.704L121.664 58.4H137.504L149.864 99.44L155.504 120.56L161.504 99.32L173.744 58.4H188.384Z" fill="#479A75"/>
<g clip-path="url(#clip0_15_3)">
<path d="M97.5727 86.2401C98.4916 80.5228 76.6627 49.1222 89.6258 52.5794C96.2804 54.8273 99.6812 61.8419 104.668 75.227C107.608 84.1814 108.072 89.554 109.893 94.5121C111.713 99.4702 114.561 101.545 115.606 101.693C116.651 101.842 104.832 67.8471 118.711 69.0507C126.23 70.2991 124.997 77.3479 124.6 86.9518C123.017 99.9354 122.128 94.2957 124.35 110.966C124.434 115.458 127.701 119.026 128.641 117.976C129.581 116.926 128.677 95.241 133.159 92.0019C137.64 88.7629 144.6 94.824 142.921 103.894C141.242 112.964 135.794 122.464 136.394 125.943C136.995 129.422 138.915 129.252 140.123 128.126C141.33 127.001 146.369 112.834 149.503 110.438C152.638 108.042 153.922 119.242 153.999 121.996C154.075 124.749 153.017 131.334 151.278 132.614C149.538 133.895 145.243 135.092 144.792 136.905C144.341 138.717 149.444 141.555 149.81 142.674C150.177 143.792 147.175 147.57 145.727 147.214C144.28 146.859 142.494 142.733 140.296 142.337C138.097 141.941 138.569 145.522 134.673 147.235C130.778 148.949 114.103 148.716 110.36 145.674C106.618 142.633 128.583 138.772 131.145 135.705C132.6 133.221 131.535 130.686 129.38 131.119C127.224 131.552 108.55 141.145 102.949 138.641C97.3474 136.137 90.9554 132.927 92.9182 130.745C94.881 128.564 118.332 128.779 116.904 125.128C107.152 115.62 92.3257 126.986 83.6779 125.441C75.228 122.727 68.1861 119.388 69.5953 116.074C71.0046 112.76 96.8714 118.822 99.7245 114.12C102.578 109.418 94.6028 109.461 90.2032 108.669C85.8035 107.877 76.0177 111.306 68.4142 107.514C63.9485 105.287 58.4827 102.354 60.9548 98.7325C63.4268 95.111 85.3763 100.607 85.6435 97.6881C85.9107 94.7694 71.5979 95.6177 63.7823 90.3382C55.9668 85.0587 45.1201 80.3682 46.7619 75.1303C49.0746 71.5245 54.8345 72.5458 56.7902 74.3014C58.7459 76.0571 66.7996 82.1895 71.4352 84.4563C76.0707 86.7231 78.8628 89.0746 78.997 87.6158C79.1312 86.1569 75.4173 79.5555 71.7962 77.2521C68.1752 74.9488 62.8494 72.0993 59.1664 69.0002C52.7922 64.9134 47.2092 56.1514 58.378 51.8767C68.0775 48.1643 74.0523 56.6492 78.4956 61.7487C82.9389 66.8483 85.2813 72.1034 88.7244 77.8802C92.1675 83.6569 97.1625 88.7927 97.5727 86.2401Z" fill="#519372" fill-opacity="0.1"/>
</g>
<defs>
<clipPath id="clip0_15_3">
<rect width="117.981" height="146.579" fill="white" transform="matrix(-0.667048 0.745015 0.745015 0.667048 86.6989 7)"/>
</clipPath>
</defs>
</svg>
