<svg aria-hidden="true" style="position: absolute; width: 0; height: 0; overflow: hidden;" version="1.1" xmlns="http://www.w3.org/2000/svg" xmlns:xlink="http://www.w3.org/1999/xlink">
<defs>
<symbol id="icon-moving" viewBox="0 0 32 32">
<path d="M30.497 17.169h-2.238v-5.979c0-0.829-0.674-1.503-1.503-1.503h-7.037v-5.779c0-0.277-0.224-0.501-0.501-0.501h-18.717c-0.277 0-0.501 0.224-0.501 0.501v10.622c0 0.277 0.224 0.501 0.501 0.501s0.501-0.224 0.501-0.501v-10.121h17.715l-0.002 18.104h-6.772c-0.639-1.715-2.292-2.939-4.227-2.939s-3.588 1.225-4.227 2.939h-2.487v-4.777c0-0.277-0.224-0.501-0.501-0.501s-0.501 0.224-0.501 0.501v6.948c0 0.829 0.674 1.503 1.503 1.503h2.226c0.757 1.429 2.26 2.405 3.987 2.405s3.229-0.976 3.987-2.405h3.496c0.277 0 0.501-0.224 0.501-0.501s-0.224-0.501-0.501-0.501h-3.11c0.137-0.545 0.17-1.113 0.1-1.67h6.821c-0.070 0.558-0.038 1.125 0.1 1.67h-1.239c-0.277 0-0.501 0.224-0.501 0.501s0.224 0.501 0.501 0.501h1.625c0.757 1.429 2.26 2.405 3.987 2.405s3.229-0.976 3.987-2.405h3.028c0.829 0 1.503-0.674 1.503-1.503v-6.012c0-0.829-0.674-1.503-1.503-1.503zM1.503 25.186c-0.276 0-0.501-0.225-0.501-0.501v-1.169h2.242c-0.071 0.558-0.038 1.125 0.1 1.67h-1.84zM7.716 27.591c-1.934 0-3.507-1.573-3.507-3.507s1.573-3.507 3.507-3.507 3.507 1.573 3.507 3.507-1.573 3.507-3.507 3.507zM23.482 27.591c-1.934 0-3.507-1.573-3.507-3.507s1.573-3.507 3.507-3.507 3.507 1.573 3.507 3.507-1.573 3.507-3.507 3.507zM30.998 24.685c0 0.276-0.225 0.501-0.501 0.501h-2.642c0.137-0.545 0.17-1.113 0.1-1.67h3.043v1.169zM30.998 22.514h-3.289c-0.639-1.715-2.292-2.939-4.227-2.939-1.571 0-2.956 0.808-3.763 2.029v-10.914h7.037c0.276 0 0.501 0.225 0.501 0.501v6.48c0 0.277 0.224 0.501 0.501 0.501h2.739c0.276 0 0.501 0.225 0.501 0.501v3.841z"></path>
<path d="M25.887 11.29h-4.81c-0.277 0-0.501 0.224-0.501 0.501v4.276c0 0.277 0.224 0.501 0.501 0.501h4.81c0.277 0 0.501-0.224 0.501-0.501v-4.276c0-0.277-0.224-0.501-0.501-0.501zM25.386 15.566h-3.808v-3.274h3.808v3.274z"></path>
<path d="M22.146 17.169h-1.336c-0.277 0-0.501 0.224-0.501 0.501s0.224 0.501 0.501 0.501h1.336c0.277 0 0.501-0.224 0.501-0.501s-0.224-0.501-0.501-0.501z"></path>
<path d="M7.716 21.712c-1.308 0-2.372 1.064-2.372 2.372s1.064 2.372 2.372 2.372 2.372-1.064 2.372-2.372-1.064-2.372-2.372-2.372zM7.716 25.453c-0.755 0-1.37-0.614-1.37-1.369s0.614-1.369 1.37-1.369 1.37 0.614 1.37 1.369-0.614 1.369-1.37 1.369z"></path>
<path d="M23.482 21.712c-1.308 0-2.372 1.064-2.372 2.372s1.064 2.372 2.372 2.372c1.308 0 2.372-1.064 2.372-2.372s-1.064-2.372-2.372-2.372zM23.482 25.453c-0.755 0-1.369-0.614-1.369-1.369s0.614-1.369 1.369-1.369 1.369 0.614 1.369 1.369-0.614 1.369-1.369 1.369z"></path>
<path d="M16.261 10.361l-6.146-3.741c-0.16-0.098-0.361-0.098-0.521 0l-6.146 3.741c-0.192 0.117-0.282 0.347-0.222 0.563s0.258 0.366 0.482 0.366h1.102v6.447c0 0.277 0.224 0.501 0.501 0.501h9.086c0.277 0 0.501-0.224 0.501-0.501v-6.447h1.102c0.225 0 0.422-0.149 0.482-0.366s-0.030-0.447-0.222-0.563zM10.689 17.236h-1.67v-3.274h1.67v3.274zM13.896 10.789v6.447h-2.205v-3.774c0-0.277-0.224-0.501-0.501-0.501h-2.672c-0.277 0-0.501 0.224-0.501 0.501v3.774h-2.205v-6.447c0-0.225-0.149-0.416-0.354-0.479l4.396-2.675 4.396 2.675c-0.205 0.063-0.354 0.254-0.354 0.479z"></path>
<path d="M10.388 10.823h-1.069c-0.277 0-0.501 0.224-0.501 0.501s0.224 0.501 0.501 0.501h1.069c0.277 0 0.501-0.224 0.501-0.501s-0.224-0.501-0.501-0.501z"></path>
<path d="M10.388 9.219h-1.069c-0.277 0-0.501 0.224-0.501 0.501s0.224 0.501 0.501 0.501h1.069c0.277 0 0.501-0.224 0.501-0.501s-0.224-0.501-0.501-0.501z"></path>
</symbol>
<symbol id="icon-repair" viewBox="0 0 32 32">
<path d="M14.288 14.594l-4.407-4.407 1.275-1.275 4.407 4.407 0.725-0.725-4.627-4.627 1.332-1.332c0.011-0.011 0.020-0.022 0.030-0.033 0.011-0.009 0.021-0.018 0.031-0.028l2.409-2.409c0.198-0.198 0.201-0.517 0.007-0.719l-0.027-0.029c-0.023-0.024-0.046-0.048-0.069-0.071-1.204-1.204-2.768-1.923-4.182-1.923-0.954 0-1.774 0.316-2.373 0.915-0.013 0.013-0.025 0.027-0.037 0.041-0.008 0.007-0.016 0.014-0.023 0.021l-5.464 5.464c-0.2 0.2-0.2 0.525 0 0.726l0.807 0.807-0.667 0.667-0.807-0.807c-0.096-0.096-0.227-0.15-0.363-0.15s-0.266 0.054-0.363 0.15l-1.673 1.673c-0.2 0.2-0.2 0.525 0 0.725l3.51 3.51c0.096 0.096 0.227 0.15 0.363 0.15s0.267-0.054 0.363-0.15l1.673-1.673c0.2-0.2 0.2-0.525 0-0.725l-0.807-0.807 0.667-0.667 0.807 0.807c0.1 0.1 0.231 0.15 0.363 0.15s0.263-0.050 0.363-0.15l1.407-1.407 4.627 4.627 0.725-0.726zM11.191 2.448c1.046 0 2.21 0.503 3.177 1.36l-1.677 1.677-2.736-2.736c0.347-0.198 0.766-0.301 1.236-0.301zM4.101 14.076l-2.784-2.784 0.948-0.948 2.784 2.784-0.948 0.948zM4.642 11.196l-0.444-0.444 0.629-0.629 0.444 0.444-0.629 0.63zM7.166 11.010l-2.784-2.784 4.739-4.739 2.784 2.784-4.739 4.739z"></path>
<path d="M31.36 27.665l-10.555-10.554-0.725 0.725 10.192 10.192-1.275 1.275-10.192-10.192-0.725 0.726 10.555 10.555c0.096 0.096 0.227 0.15 0.363 0.15s0.267-0.054 0.363-0.15l2-2c0.2-0.2 0.2-0.525-0-0.726z"></path>
<path d="M31.652 4.698c-0.058-0.167-0.198-0.292-0.37-0.331s-0.352 0.013-0.477 0.137l-2.073 2.072-1.943-1.943 2.073-2.072c0.125-0.125 0.177-0.305 0.137-0.477s-0.164-0.312-0.331-0.37c-0.517-0.18-1.057-0.272-1.607-0.272-1.299 0-2.52 0.506-3.438 1.424s-1.424 2.139-1.424 3.438c0 0.628 0.12 1.238 0.346 1.805l-13.089 13.089c-0.566-0.226-1.176-0.346-1.804-0.346-1.299 0-2.52 0.506-3.438 1.424-1.312 1.312-1.764 3.292-1.152 5.045 0.058 0.167 0.198 0.292 0.37 0.331s0.352-0.012 0.477-0.137l2.073-2.073 1.943 1.943-2.073 2.073c-0.125 0.125-0.177 0.305-0.137 0.477s0.164 0.312 0.331 0.37c0.517 0.18 1.057 0.272 1.607 0.272 0 0 0 0 0 0 1.299 0 2.52-0.506 3.438-1.424 1.414-1.415 1.773-3.491 1.077-5.241l13.091-13.090c0.567 0.226 1.176 0.346 1.805 0.346 0 0 0 0 0 0 1.299 0 2.52-0.506 3.438-1.424 1.312-1.312 1.764-3.292 1.152-5.045zM10.365 28.428c-0.725 0.725-1.688 1.124-2.713 1.124 0 0-0 0-0 0-0.141-0-0.281-0.008-0.42-0.023l1.78-1.78c0.096-0.096 0.15-0.227 0.15-0.363s-0.054-0.267-0.15-0.363l-2.669-2.669c-0.2-0.2-0.525-0.2-0.725 0l-1.779 1.779c-0.122-1.14 0.273-2.304 1.1-3.131 0.725-0.725 1.688-1.124 2.713-1.124s1.988 0.399 2.713 1.124c1.496 1.496 1.496 3.93 0 5.425zM11.721 22.907l-1.261-1.261 12.489-12.489 1.261 1.261-12.489 12.489zM29.775 9.018c-0.725 0.725-1.688 1.124-2.713 1.124s-1.988-0.399-2.713-1.124c-0.724-0.725-1.124-1.688-1.124-2.713s0.399-1.988 1.124-2.713c0.724-0.725 1.688-1.124 2.713-1.124 0.141 0 0.281 0.008 0.42 0.023l-1.78 1.78c-0.096 0.096-0.15 0.227-0.15 0.363s0.054 0.266 0.15 0.363l2.669 2.669c0.2 0.2 0.525 0.2 0.726 0l1.779-1.779c0.122 1.14-0.273 2.304-1.1 3.132z"></path>
</symbol>
</defs>
</svg>
