<svg aria-hidden="true" xmlns="http://www.w3.org/2000/svg">
  <defs>
<!--Section Header-->
    <symbol id="icon-envelope" viewBox="0 0 43 32">
      <path
        d="M38.667 0H4C1.794 0 0 1.794 0 4v24c0 2.206 1.794 4 4 4h34.667c2.206 0 4-1.794 4-4V4c0-2.206-1.794-4-4-4zm0 2.667c.181 0 .353.038.511.103L21.334 18.236 3.49 2.77a1.32 1.32 0 0 1 .511-.103h34.667zm0 26.666H4A1.334 1.334 0 0 1 2.667 28V5.587L20.46 21.008a1.335 1.335 0 0 0 1.748 0L40.001 5.587V28c0 .736-.598 1.333-1.333 1.333z" />
    </symbol>
    <symbol id="icon-smartphone" viewBox="0 0 20 32">
      <path
        d="M17 0H3C1.346 0 0 1.346 0 3v26c0 1.654 1.346 3 3 3h14c1.654 0 3-1.346 3-3V3c0-1.654-1.346-3-3-3zM3 2h14a1 1 0 0 1 1 1v21H2V3a1 1 0 0 1 1-1zm14 28H3a1 1 0 0 1-1-1v-3h16v3a1 1 0 0 1-1 1z" />
      <path
        d="M4.707 27.478c.391.365.391.956 0 1.321s-1.024.365-1.414 0c-.391-.365-.391-.956 0-1.321s1.024-.365 1.414 0z" />
    </symbol>
    <symbol id="house" viewBox="0 0 43 32">
      
  <path d="M96,35c0-0.1,0-0.1,0-0.2c0-0.1,0-0.1,0-0.2c0-0.1-0.1-0.1-0.1-0.1c0-0.1-0.1-0.1-0.1-0.2c0,0,0,0,0,0l-22-19   c0,0-0.1,0-0.1-0.1c-0.1,0-0.1-0.1-0.2-0.1c-0.1,0-0.1,0-0.2,0c0,0-0.1,0-0.1,0H42c-0.1,0-0.2,0-0.4,0.1c0,0-0.1,0.1-0.1,0.1   c-0.1,0-0.1,0.1-0.2,0.1l-13,11.2c-0.1-0.5-0.2-1.1-0.3-1.7c-0.1-1-0.2-2-0.7-2.9c-0.7-1.2-1.7-2-2.6-2.6c-0.5-0.3-0.9-0.6-1.2-0.9   c-0.3-0.3-0.6-0.6-0.8-0.9c-0.4-0.4-0.7-0.8-1.1-1.2C21.1,15.7,20.2,15,19,15c-1.6,0-2.7,1.2-3.7,2.4c-0.3,0.3-0.5,0.6-0.8,0.9   c-0.3,0.3-0.7,0.6-1.2,1c-0.9,0.7-1.9,1.4-2.6,2.6c-0.5,0.9-0.6,1.9-0.7,2.8c-0.1,0.8-0.2,1.5-0.4,2.2c-0.2,0.5-0.6,1.1-1,1.7   c-0.6,0.8-1.2,1.6-1.5,2.7c-0.3,1-0.2,2-0.2,2.9c0,0.8,0.1,1.5,0,2.1c-0.1,0.6-0.5,1.2-0.8,1.9c-0.5,0.9-0.9,1.7-1.1,2.8   c-0.2,1,0,2,0.2,3c0.1,0.7,0.3,1.4,0.2,2.1c-0.1,0.7-0.3,1.3-0.6,2.1C4.3,49,4,49.9,4,50.9c0,0.9,0.4,1.6,0.7,2.2   c0.2,0.4,0.4,0.8,0.4,1.1c0,0.4-0.1,0.8-0.3,1.3c-0.2,0.7-0.5,1.4-0.3,2.2c0.2,0.9,0.7,1.6,1.2,2.1c0.3,0.3,0.5,0.6,0.6,0.9   C6.4,61,6.4,61.5,6.4,62c0,0.7-0.1,1.6,0.4,2.3c0.5,0.9,1.4,1.3,2.1,1.6c0.4,0.2,0.7,0.3,0.9,0.5c0.2,0.2,0.4,0.6,0.7,1   c0.4,0.7,0.8,1.5,1.7,1.9c0.4,0.2,0.8,0.3,1.2,0.3c0.4,0,0.8-0.1,1.2-0.1c0.1,0,0.2,0,0.2,0L14.4,78H5c-0.6,0-1,0.4-1,1v5   c0,0.6,0.4,1,1,1h90c0.6,0,1-0.4,1-1v-5L96,35C96,35,96,35,96,35z M65,78V61l14,0v17H65z M33,78V58h8v20H33z M43,58h8v20h-8V58z    M52,56H32c-0.6,0-1,0.4-1,1v21H21V42h30h12v36H53V57C53,56.4,52.6,56,52,56z M42,17.3L61.3,34H22.7L42,17.3z M72.6,17l19.7,17   H64.4L44.7,17H72.6z M21,40v-4h42v4H51H21z M65,42h14v17l-14,0V42z M81,42h13v17l-13,0V42z M65,40v-4h29v4H65z M81,61l13,0v17H81   V61z M14.2,67.3c-0.5,0.1-1,0.2-1.3,0c-0.3-0.1-0.5-0.6-0.8-1c-0.3-0.5-0.6-1-1-1.4c-0.4-0.4-0.9-0.6-1.4-0.9   c-0.5-0.2-1-0.5-1.2-0.8c-0.1-0.2-0.1-0.7-0.1-1.2c0-0.6,0-1.3-0.2-2c-0.2-0.6-0.6-1.1-1-1.5c-0.4-0.4-0.7-0.8-0.8-1.2   c0-0.3,0.1-0.7,0.3-1.2c0.2-0.6,0.4-1.3,0.4-2.1c0-0.7-0.4-1.3-0.7-1.8C6.2,51.7,6,51.3,6,50.9c0-0.6,0.3-1.4,0.6-2.1   c0.3-0.8,0.6-1.7,0.7-2.6c0.1-0.9-0.1-1.8-0.3-2.6c-0.2-0.8-0.3-1.6-0.2-2.3c0.1-0.7,0.5-1.4,0.9-2.1c0.4-0.8,0.8-1.5,1-2.4   c0.2-0.9,0.1-1.8,0.1-2.7c-0.1-0.8-0.1-1.6,0.1-2.2c0.2-0.7,0.7-1.4,1.2-2.1c0.5-0.7,1-1.4,1.3-2.1c0.3-0.9,0.5-1.8,0.6-2.6   c0.1-0.8,0.2-1.6,0.5-2.1c0.4-0.8,1.3-1.4,2-1.9c0.5-0.4,1-0.7,1.5-1.2c0.3-0.3,0.6-0.7,0.9-1c0.8-0.9,1.5-1.7,2.2-1.7   c0.4,0,0.8,0.2,1.3,0.7c0.3,0.3,0.6,0.7,1,1c0.3,0.3,0.6,0.7,0.9,1c0.4,0.4,0.9,0.8,1.4,1.2c0.8,0.6,1.6,1.1,2,1.9   c0.3,0.5,0.4,1.3,0.5,2.1c0.1,0.9,0.2,1.7,0.5,2.6c0,0.1,0.1,0.2,0.1,0.3L19.6,34c-0.2,0-0.4-0.1-0.6-0.1c-1.6,0-2.8,1.2-2.9,2.7   l-1.3,30.6C14.6,67.3,14.4,67.3,14.2,67.3z M18.1,36.7c0-0.4,0.4-0.8,0.9-0.8V78h-2.6L18.1,36.7z M6,83v-3h14h12h20h12h30v3H6z"/>
    </symbol>
    <symbol id="flower" viewBox="0 0 43 32">
    <path d="M92.8,82.1c-0.3-0.2-0.6-0.4-0.9-0.6c-0.3-0.2-0.8-0.7-1.2-1.2c-0.8-0.9-1.7-1.9-3-2.4c-0.9-0.3-1.9-0.2-2.8-0.1    c-0.7,0.1-1.4,0.2-2,0.1c-0.5-0.1-1-0.5-1.6-0.9c-0.8-0.6-1.8-1.2-2.9-1.3c-1-0.1-1.9,0.2-2.8,0.5c-0.7,0.2-1.4,0.5-1.9,0.4    c-0.5,0-1.1-0.3-1.8-0.7C71,75.5,70.1,75,69,75c-1.1,0-2,0.5-2.9,0.9C66,75.9,66,76,65.9,76c1.4-1.7,2.7-3.5,3.7-5.4l3.3-6.4    c0.1-0.2,0.1-0.5,0.1-0.8s-0.3-0.5-0.5-0.6l-6.2-3.2l7.4-14.2c0.1-0.3,0.4-0.5,0.7-0.5l3-0.5c0.9-0.2,1.7-0.7,2.2-1.6l3.2-6.2    c0.4-0.7,0.4-1.5,0.2-2.3c-0.2-0.8-0.8-1.4-1.5-1.8L72.5,28c-0.7-0.4-1.5-0.4-2.3-0.2c-0.8,0.2-1.4,0.8-1.8,1.5l-3.2,6.2    c-0.4,0.8-0.4,1.8,0,2.7l1.3,2.7c0.1,0.3,0.1,0.6,0,0.9l-7.4,14.2l-6.2-3.2c-0.5-0.3-1.1-0.1-1.3,0.4l-3.3,6.4    c-2.9,5.6-3.8,12.1-2.7,18.4c-0.2,0-0.5,0-0.7-0.1c-0.5-0.1-1-0.5-1.6-0.9c-0.8-0.6-1.8-1.2-2.9-1.3c-1-0.1-1.9,0.2-2.8,0.5    c-0.7,0.2-1.3,0.5-1.9,0.4c-0.5,0-1.1-0.3-1.8-0.7c-0.3-0.1-0.6-0.3-0.9-0.4V60.4l3.4-3.4c1.1-0.1,5.4-0.8,7.3-4.8c0,0,0,0,0,0    c2.1-4.2,1-11.1,0.9-11.4c-0.1-0.3-0.3-0.6-0.5-0.7c-0.3-0.1-0.6-0.1-0.9,0c-0.3,0.1-6.4,3.4-8.5,7.6c-1.7,3.3-0.6,6.6,0.1,8    L33,57.6V42.8c1.6-0.7,2.6-2.9,3-5.1c1.4,1,3.1,1.7,4.5,1.7c0.8,0,1.5-0.2,2.1-0.8c0,0,0,0,0,0c1.5-1.5,0.6-4.4-0.9-6.6    c2.6-0.5,5.3-1.9,5.3-4c0-2.1-2.7-3.5-5.3-4c1.5-2.2,2.4-5.1,0.9-6.6c-1.5-1.5-4.4-0.6-6.6,0.9c-0.5-2.6-1.9-5.3-4-5.3    s-3.5,2.7-4,5.3c-2.2-1.5-5.1-2.4-6.6-0.9c-1.5,1.5-0.6,4.4,0.9,6.6c-2.6,0.5-5.3,1.9-5.3,4s2.7,3.5,5.3,4    c-1.5,2.2-2.4,5.1-0.9,6.6c0.5,0.5,1.3,0.8,2.1,0.8c1.4,0,3.1-0.7,4.5-1.7c0.4,2.2,1.5,4.4,3,5.1v19.8l-1.8-1.8    c0.7-1.5,1.7-4.7,0.1-8c-2.1-4.2-8.2-7.5-8.5-7.6c-0.3-0.2-0.6-0.2-0.9,0c-0.3,0.1-0.5,0.4-0.5,0.7c0,0.3-1.1,7.2,0.9,11.4    c0,0,0,0,0,0c2,3.9,6.3,4.6,7.3,4.8l3.4,3.4V75c-1.1,0-2,0.5-2.9,0.9c-0.6,0.3-1.3,0.6-1.8,0.7c-0.6,0-1.2-0.2-1.9-0.4    c-0.9-0.3-1.8-0.6-2.8-0.5c-1.1,0.2-2,0.8-2.9,1.3c-0.6,0.4-1.2,0.8-1.6,0.9c-0.6,0.1-1.3,0-2-0.1c-0.9-0.1-1.9-0.3-2.8,0.1    c-1.3,0.5-2.2,1.5-3,2.4c-0.4,0.5-0.8,0.9-1.2,1.2c-0.3,0.2-0.6,0.4-0.9,0.6C5.6,83.1,4,84.1,4,86c0,0.6,0.4,1,1,1h38h14h38    c0.6,0,1-0.4,1-1C96,84.2,94.4,83.1,92.8,82.1z M36.5,48.6c1.3-2.6,4.5-4.8,6.3-6c0.2,2.1,0.3,6.1-0.9,8.7v0    c-1.3,2.6-4,3.4-5.3,3.6C36.1,53.8,35.3,51.2,36.5,48.6z M22.1,56.3L22.1,56.3c-1.3-2.6-1.1-6.6-0.9-8.7c1.8,1.1,5.1,3.4,6.3,6    c1.3,2.6,0.4,5.2-0.1,6.3C26.1,59.7,23.3,58.9,22.1,56.3z M33.4,31c-0.1,0.1-0.2,0.1-0.3,0.1c-0.7,0.2-1.4,0.2-2.2,0    c-0.1,0-0.2-0.1-0.3-0.1c0,0,0,0,0,0c0,0,0,0,0,0c-0.7-0.3-1.2-0.8-1.5-1.5c0,0,0,0,0,0c0,0,0,0,0,0c-0.1-0.1-0.1-0.2-0.1-0.3    c0,0,0,0,0,0c-0.1-0.4-0.2-0.7-0.2-1.1s0.1-0.7,0.2-1.1c0-0.1,0.1-0.2,0.1-0.3c0,0,0,0,0,0c0,0,0,0,0,0c0.3-0.7,0.8-1.2,1.5-1.5    c0,0,0,0,0,0c0,0,0,0,0,0c0.1-0.1,0.2-0.1,0.3-0.1c0.7-0.2,1.4-0.2,2.2,0c0.1,0,0.2,0.1,0.3,0.1c0,0,0,0,0,0c0,0,0,0,0,0    c0.7,0.3,1.2,0.8,1.5,1.5c0,0,0,0,0,0c0,0,0,0,0,0c0.1,0.1,0.1,0.2,0.1,0.3c0.1,0.4,0.2,0.7,0.2,1.1s-0.1,0.7-0.2,1.1    c0,0.1-0.1,0.2-0.1,0.3c0,0,0,0,0,0c0,0,0,0,0,0C34.6,30.1,34.1,30.6,33.4,31C33.4,31,33.4,31,33.4,31C33.4,31,33.4,31,33.4,31z     M41.2,37.2L41.2,37.2c-0.5,0.5-3-0.1-5-1.8c0-0.1,0-0.1,0-0.2c0-0.2,0-0.5-0.1-0.7c0-0.1,0-0.2,0-0.3c0-0.2-0.1-0.4-0.1-0.5    c0-0.1,0-0.2-0.1-0.3c-0.1-0.2-0.1-0.3-0.2-0.5c0-0.1,0-0.1-0.1-0.2c-0.1-0.2-0.2-0.4-0.3-0.6c0,0,0,0,0,0    c0.3-0.2,0.5-0.4,0.7-0.7c0,0,0,0,0,0c0.2,0.1,0.4,0.2,0.6,0.3c0.1,0,0.1,0,0.2,0.1c0.2,0.1,0.3,0.1,0.5,0.2c0.1,0,0.2,0,0.3,0.1    c0.2,0,0.3,0.1,0.5,0.1c0.1,0,0.2,0,0.3,0c0.2,0,0.4,0,0.7,0.1c0.1,0,0.1,0,0.2,0C41.1,34.2,41.7,36.6,41.2,37.2z M45,28    c0,0.8-2.4,2.2-5.2,2.2c0,0-0.1,0-0.1,0c0,0-0.1,0-0.1,0c-0.3,0-0.6,0-0.9-0.1c-0.1,0-0.2,0-0.2,0c-0.2,0-0.4-0.1-0.5-0.1    c-0.1,0-0.2,0-0.2-0.1c-0.2-0.1-0.3-0.1-0.4-0.2c0,0-0.1-0.1-0.1-0.1c0,0,0,0,0,0c0.2-0.5,0.3-1.1,0.3-1.6c0-0.5-0.1-1.1-0.3-1.6    c0,0,0,0,0,0c0,0,0.1-0.1,0.1-0.1c0.1-0.1,0.3-0.1,0.4-0.2c0.1,0,0.1-0.1,0.2-0.1c0.2,0,0.3-0.1,0.5-0.1c0.1,0,0.2,0,0.2,0    c0.3,0,0.6-0.1,0.9-0.1c0,0,0.1,0,0.1,0c0,0,0.1,0,0.1,0C42.6,25.8,45,27.2,45,28z M41.2,18.8c0.5,0.5-0.1,3-1.8,5    c-0.1,0-0.2,0-0.2,0c-0.2,0-0.5,0-0.7,0.1c-0.1,0-0.2,0-0.3,0c-0.2,0-0.4,0.1-0.5,0.1c-0.1,0-0.2,0-0.3,0.1    c-0.2,0.1-0.3,0.1-0.5,0.2c-0.1,0-0.1,0-0.2,0.1c-0.2,0.1-0.4,0.2-0.6,0.3c0,0,0,0,0,0c-0.2-0.3-0.4-0.5-0.7-0.7c0,0,0,0,0,0    c0.1-0.2,0.2-0.4,0.3-0.6c0-0.1,0-0.1,0.1-0.2c0.1-0.2,0.1-0.3,0.2-0.5c0-0.1,0-0.2,0.1-0.3c0-0.2,0.1-0.3,0.1-0.5    c0-0.1,0-0.2,0-0.3c0-0.2,0-0.4,0.1-0.7c0-0.1,0-0.1,0-0.2C38.2,18.9,40.6,18.3,41.2,18.8z M32,15c0.8,0,2.2,2.4,2.2,5.2    c0,0,0,0.1,0,0.1c0,0,0,0.1,0,0.1c0,0.3,0,0.6-0.1,0.9c0,0.1,0,0.2,0,0.2c0,0.2-0.1,0.4-0.1,0.5c0,0.1,0,0.2-0.1,0.2    c-0.1,0.2-0.1,0.3-0.2,0.4c0,0,0,0.1-0.1,0.1c0,0,0,0,0,0c-0.5-0.2-1.1-0.3-1.6-0.3c-0.5,0-1.1,0.1-1.6,0.3c0,0,0,0,0,0    c0,0-0.1-0.1-0.1-0.1c-0.1-0.1-0.2-0.3-0.2-0.4c0-0.1-0.1-0.1-0.1-0.2c0-0.2-0.1-0.3-0.1-0.5c0-0.1,0-0.2,0-0.2    c0-0.3-0.1-0.6-0.1-0.9c0,0,0-0.1,0-0.1c0,0,0-0.1,0-0.1C29.8,17.4,31.2,15,32,15z M22.8,18.8c0.5-0.5,3,0.1,5,1.8    c0,0.1,0,0.1,0,0.2c0,0.2,0,0.5,0.1,0.7c0,0.1,0,0.2,0,0.3c0,0.2,0.1,0.4,0.1,0.5c0,0.1,0,0.2,0.1,0.3c0.1,0.2,0.1,0.3,0.2,0.5    c0,0.1,0,0.1,0.1,0.2c0.1,0.2,0.2,0.4,0.3,0.6c0,0,0,0,0,0c-0.3,0.2-0.5,0.4-0.7,0.7c0,0,0,0,0,0c-0.2-0.1-0.4-0.2-0.6-0.3    c-0.1,0-0.1,0-0.2-0.1c-0.2-0.1-0.3-0.1-0.5-0.2c-0.1,0-0.2,0-0.3-0.1c-0.2,0-0.3-0.1-0.5-0.1c-0.1,0-0.2,0-0.3,0    c-0.2,0-0.4,0-0.7-0.1c-0.1,0-0.1,0-0.2,0C22.9,21.8,22.3,19.4,22.8,18.8z M19,28c0-0.8,2.4-2.2,5.2-2.2c0,0,0.1,0,0.1,0    c0,0,0.1,0,0.1,0c0.3,0,0.6,0,0.9,0.1c0.1,0,0.2,0,0.2,0c0.2,0,0.4,0.1,0.5,0.1c0.1,0,0.2,0,0.2,0.1c0.2,0.1,0.3,0.1,0.4,0.2    c0,0,0.1,0.1,0.1,0.1c0,0,0,0,0,0c-0.2,0.5-0.3,1.1-0.3,1.6s0.1,1.1,0.3,1.6c0,0,0,0,0,0c0,0-0.1,0.1-0.1,0.1    c-0.1,0.1-0.3,0.1-0.4,0.2c-0.1,0-0.1,0.1-0.2,0.1c-0.2,0-0.3,0.1-0.5,0.1c-0.1,0-0.2,0-0.2,0c-0.3,0-0.6,0.1-0.9,0.1    c0,0-0.1,0-0.1,0c0,0-0.1,0-0.1,0C21.4,30.2,19,28.8,19,28z M22.8,37.2c-0.5-0.5,0.1-3,1.8-5c0.1,0,0.2,0,0.2,0    c0.2,0,0.5,0,0.7-0.1c0.1,0,0.2,0,0.3,0c0.2,0,0.4-0.1,0.5-0.1c0.1,0,0.2,0,0.3-0.1c0.2-0.1,0.3-0.1,0.5-0.2c0.1,0,0.1,0,0.2-0.1    c0.2-0.1,0.4-0.2,0.6-0.3c0,0,0,0,0,0c0.2,0.3,0.4,0.5,0.7,0.7c0,0,0,0,0,0c-0.1,0.2-0.2,0.4-0.3,0.6c0,0.1,0,0.1-0.1,0.2    c-0.1,0.2-0.1,0.3-0.2,0.5c0,0.1,0,0.2-0.1,0.3c0,0.2-0.1,0.3-0.1,0.5c0,0.1,0,0.2,0,0.3c0,0.2,0,0.4-0.1,0.7c0,0.1,0,0.1,0,0.2    C25.8,37.1,23.3,37.7,22.8,37.2z M29.8,35.8c0,0,0-0.1,0-0.1c0,0,0-0.1,0-0.1c0-0.3,0-0.6,0.1-0.9c0-0.1,0-0.2,0-0.2    c0-0.2,0.1-0.4,0.1-0.5c0-0.1,0-0.2,0.1-0.2c0.1-0.2,0.1-0.3,0.2-0.4c0,0,0-0.1,0.1-0.1c0,0,0,0,0,0c1.1,0.3,2.2,0.3,3.2,0    c0,0,0,0,0,0c0,0,0.1,0.1,0.1,0.1c0.1,0.1,0.2,0.3,0.2,0.4c0,0.1,0.1,0.1,0.1,0.2c0,0.2,0.1,0.3,0.1,0.5c0,0.1,0,0.2,0,0.2    c0,0.3,0.1,0.6,0.1,0.9c0,0,0,0.1,0,0.1c0,0,0,0.1,0,0.1C34.2,38.6,32.8,41,32,41S29.8,38.6,29.8,35.8z M60.9,56.9l7.4-14.2    c0.4-0.8,0.4-1.8,0-2.7L67,37.3c-0.1-0.3-0.1-0.6,0-0.9l3.2-6.2c0.1-0.2,0.3-0.4,0.6-0.5c0.3-0.1,0.5-0.1,0.8,0.1l8.9,4.6    c0.2,0.1,0.4,0.3,0.5,0.6c0.1,0.3,0.1,0.5-0.1,0.8l-3.2,6.2c-0.1,0.3-0.4,0.5-0.7,0.5l-3,0.5c-0.9,0.2-1.7,0.7-2.2,1.6l-7.4,14.2    l-1-0.5L60.9,56.9z M50,60.5l2.9-5.5l9.3,4.8l2.3,1.2c0,0,0,0,0,0l6.2,3.2l-2.9,5.6c-1.3,2.4-2.9,4.6-4.9,6.6    c-0.2-0.1-0.3-0.1-0.5-0.2c-0.9-0.3-1.8-0.6-2.8-0.5c-1.1,0.2-2,0.8-2.9,1.4c-0.6,0.4-1.2,0.8-1.6,0.9c-0.6,0.1-1.3,0-2-0.1    c-0.9-0.1-1.9-0.3-2.8,0.1c-0.1,0-0.2,0.1-0.3,0.2c-0.1,0-0.2-0.1-0.3-0.2c-0.7-0.3-1.4-0.2-2.1-0.2C46.4,71.9,47.3,65.8,50,60.5z     M43,85H6.5c0.4-0.4,1-0.8,1.8-1.3c0.3-0.2,0.6-0.4,1-0.6c0.5-0.4,1-0.9,1.5-1.5c0.7-0.8,1.4-1.6,2.2-1.9c0.5-0.2,1.1-0.1,1.8,0    c0.8,0.1,1.8,0.3,2.8,0c0.8-0.2,1.6-0.7,2.3-1.2c0.7-0.5,1.4-0.9,2-1c0.5-0.1,1.2,0.2,1.9,0.4c0.8,0.3,1.7,0.6,2.7,0.5    c0.9-0.1,1.7-0.5,2.5-0.9c0.7-0.4,1.4-0.7,2-0.7c0.6,0,1.3,0.3,2,0.7c0.8,0.4,1.6,0.8,2.5,0.9c1,0.1,1.9-0.3,2.7-0.5    c0.7-0.2,1.4-0.5,1.9-0.4c0.6,0.1,1.3,0.6,2,1c0.7,0.5,1.5,1,2.3,1.2c1,0.2,1.9,0.1,2.8,0c0.7-0.1,1.4-0.2,1.8,0    c0.8,0.3,1.5,1.1,2.2,1.9c0.5,0.6,1,1.1,1.5,1.5c0.3,0.2,0.6,0.4,1,0.6c0.8,0.5,1.4,0.9,1.8,1.3H43z M57.8,85    c-0.5-1.3-1.7-2.1-3.1-3c-0.3-0.2-0.6-0.4-0.9-0.6c-0.3-0.2-0.7-0.7-1.2-1.2c-0.2-0.2-0.3-0.4-0.5-0.6c0.2,0,0.5,0.1,0.7,0.1    c0.8,0.1,1.8,0.3,2.8,0c0.8-0.2,1.6-0.7,2.3-1.2c0.7-0.5,1.4-0.9,2-1c0.5-0.1,1.2,0.2,1.9,0.4c0.3,0.1,0.7,0.2,1,0.3c0,0,0,0,0,0    c0.5,0.1,1.1,0.3,1.7,0.2c0.9-0.1,1.7-0.5,2.5-0.9c0.7-0.4,1.4-0.7,2-0.7c0.6,0,1.3,0.3,2,0.7c0.8,0.4,1.6,0.8,2.5,0.9    c1,0.1,1.9-0.3,2.7-0.5c0.7-0.2,1.4-0.5,1.9-0.4c0.6,0.1,1.3,0.6,2,1c0.7,0.5,1.5,1,2.3,1.2c1,0.2,1.9,0.1,2.8,0    c0.7-0.1,1.4-0.2,1.8,0c0.8,0.3,1.5,1.1,2.2,1.9c0.5,0.6,1,1.1,1.5,1.5c0.3,0.2,0.7,0.4,1,0.7c0.8,0.5,1.4,0.9,1.8,1.3H57.8z"/>

<path d="M71.5,38.7l1.8,0.9c0.4,0.2,0.9,0.3,1.4,0.3c1.1,0,2.1-0.6,2.7-1.6c0.4-0.7,0.4-1.5,0.2-2.3c-0.2-0.8-0.8-1.4-1.5-1.8    l-1.8-0.9c-0.7-0.4-1.5-0.4-2.3-0.2c-0.8,0.2-1.4,0.8-1.8,1.5C69.4,36.1,70,37.9,71.5,38.7z M71.9,35.5c0.1-0.2,0.3-0.4,0.6-0.5    c0.3-0.1,0.5-0.1,0.8,0.1l1.8,0.9c0.2,0.1,0.4,0.3,0.5,0.6c0.1,0.3,0.1,0.5-0.1,0.8c-0.3,0.5-0.9,0.7-1.3,0.4l-1.8-0.9    C71.9,36.6,71.7,36,71.9,35.5z"/>
    </symbol>
    <symbol id="desk" viewBox="0 0 43 32">
     <path d="M400.067,297.667h17.067c5.12,0,8.533-3.413,8.533-8.533s-3.413-8.533-8.533-8.533h-17.067
				c-5.12,0-8.533,3.413-8.533,8.533S394.947,297.667,400.067,297.667z"/>
			<path d="M400.067,383h17.067c5.12,0,8.533-3.413,8.533-8.533s-3.413-8.533-8.533-8.533h-17.067c-5.12,0-8.533,3.413-8.533,8.533
				S394.947,383,400.067,383z"/>
			<path d="M400.067,468.333h17.067c5.12,0,8.533-3.413,8.533-8.533c0-5.12-3.413-8.533-8.533-8.533h-17.067
				c-5.12,0-8.533,3.413-8.533,8.533C391.533,464.92,394.947,468.333,400.067,468.333z"/>
			<path d="M502.467,203.8h-77.653v-5.973c0-11.093-8.533-19.627-19.627-19.627h-5.12v-8.533H485.4
				c9.387,0,17.067-7.68,17.92-17.067V16.067C503.32,6.68,495.64-1,486.253-1H264.387C255-1,247.32,6.68,247.32,16.067v68.267
				H137.24c-15.36,0-30.72,6.827-40.107,18.773c-10.24,11.093-14.507,26.453-12.8,41.813l7.597,58.88H7.533
				c-5.12,0-8.533,3.413-8.533,8.533v34.133c0,5.12,3.413,8.533,8.533,8.533h8.533v247.467c0,5.12,3.413,8.533,8.533,8.533h34.133
				c5.12,0,8.533-3.413,8.533-8.533V255h31.437c5.158,25.059,27.138,42.667,52.19,42.667h35.84v17.067h-42.667
				c-23.893,0-42.667,18.773-42.667,42.667c0,5.12,3.413,8.533,8.533,8.533h76.8v51.2c-14.507,0-25.6,11.093-25.6,25.6V459.8H127
				c-5.12,0-8.533,3.413-8.533,8.533v25.6c0,5.12,3.413,8.533,8.533,8.533h8.533c0,5.12,3.413,8.533,8.533,8.533
				c5.12,0,8.533-3.413,8.533-8.533h85.333c0,5.12,3.413,8.533,8.533,8.533s8.533-3.413,8.533-8.533h8.533
				c5.12,0,8.533-3.413,8.533-8.533v-25.6c0-5.12-3.413-8.533-8.533-8.533H229.4v-17.067c0-14.507-11.093-25.6-25.6-25.6v-51.2h76.8
				c5.12,0,8.533-3.413,8.533-8.533c0-23.893-18.773-42.667-42.667-42.667H203.8v-17.067h37.547
				c25.052,0,47.032-17.608,52.19-42.667h29.73v76.8v85.333v85.333c0,5.12,3.413,8.533,8.533,8.533h153.6
				c5.12,0,8.533-3.413,8.533-8.533v-85.333V331.8V255h8.533c5.12,0,8.533-3.413,8.533-8.533v-34.133
				C511,207.213,507.587,203.8,502.467,203.8z M255,485.4H135.533v-8.533h34.133h51.2H255V485.4z M212.333,442.733V459.8H178.2
				v-17.067c0-5.12,4.267-8.533,8.533-8.533H203.8C208.92,434.2,212.333,438.467,212.333,442.733z M120.173,348.867
				c3.413-10.24,12.8-17.067,23.893-17.067h42.667v17.067H120.173z M247.32,331.8c11.093,0,20.48,6.827,23.893,17.067H203.8V331.8
				H247.32z M300.261,203.8l4.369-34.133h44.237v8.533h-5.973c-11.093,0-19.627,8.533-19.627,19.627v5.973H300.261z M406.04,195.267
				c1.707,0,2.56,0.853,2.56,2.56v5.973h-67.413v-5.973c0-1.707,0.853-2.56,2.56-2.56H357.4h34.133H406.04z M383,178.2h-17.067
				v-8.533H383V178.2z M391.533,152.6H357.4h-50.347l1.707-7.68c0-3.413,0-5.973,0-9.387H485.4V152.6H391.533z M485.4,16.067
				v101.547H304.519c-2.185-5.647-5.311-10.917-9.412-15.36c-4.118-4.462-8.935-8.218-14.212-11.133
				c-0.326-0.186-0.656-0.362-0.985-0.54c-0.19-0.1-0.378-0.204-0.569-0.302c-2.383-1.245-4.844-2.287-7.368-3.116
				c-2.742-0.93-5.561-1.648-8.438-2.125V16.067H485.4z M50.2,493.933H33.133V255H50.2V493.933z M58.733,237.933H24.6h-8.533
				v-17.067H93.72l2.56,17.067H58.733z M241.347,280.6h-90.453c-17.92,0-33.28-13.653-35.84-31.573L101.4,142.36
				c-1.707-11.093,1.707-21.333,8.533-29.013S127,101.4,137.24,101.4H255c10.24,0,20.48,4.267,27.307,11.947
				c6.827,8.533,10.24,18.773,8.533,29.013l-13.653,106.667C274.627,266.947,259.267,280.6,241.347,280.6z M476.867,408.6H340.333
				v-68.267h136.533V408.6z M476.867,493.933H340.333v-68.267h136.533V493.933z M476.867,323.267H340.333V255h136.533V323.267z
				 M493.933,237.933H485.4H331.8h-35.84l2.56-17.067h33.28h85.333h76.8V237.933z"/>
			<path d="M280.6,58.733c2.56,0,4.267-0.853,5.973-2.56l17.067-17.067c3.413-3.413,3.413-8.533,0-11.947s-8.533-3.413-11.947,0
				l-17.067,17.067c-3.413,3.413-3.413,8.533,0,11.947C276.333,57.88,278.04,58.733,280.6,58.733z"/>
			<path d="M291.693,81.773c1.707,1.707,3.413,2.56,5.973,2.56s4.267-0.853,5.973-2.56l34.133-34.133
				c3.413-3.413,3.413-8.533,0-11.947c-3.413-3.413-8.533-3.413-11.947,0l-34.133,34.133C288.28,73.24,288.28,78.36,291.693,81.773z
				"/>   </symbol>
  
 
 
    <symbol id="planting" viewBox="0 0 43 32">
  <g>
	<g>
		<path d="M464.038,258.322h-17.513v-26.005c0-4.397-3.563-7.961-7.961-7.961c-4.397,0-7.961,3.563-7.961,7.961v26.005H285.19
			V112.908h145.414v76.951c0,4.397,3.563,7.961,7.961,7.961c4.397,0,7.961-3.563,7.961-7.961v-84.912
			c0-4.397-3.563-7.961-7.961-7.961h-2.175l18.206-53.823c1.39-4.111-0.888-8.704-4.99-10.092L353.083,0.422
			c-4.167-1.41-8.683,0.825-10.092,4.99l-30.203,89.286l-2.237-49.549c-0.196-4.344-3.977-7.764-8.311-7.593l-82.473,3.723
			L213.7,18.024c-1.109-4.253-5.452-6.807-9.712-5.692l-98.596,25.721c-4.254,1.109-6.803,5.458-5.692,9.712l12.84,49.222h-5.138
			c-4.397,0-7.961,3.563-7.961,7.961v153.374H47.963c-4.397,0-7.961,3.563-7.961,7.961v50.948c0,4.397,3.563,7.961,7.961,7.961
			h17.513v178.848c0,4.397,3.563,7.961,7.961,7.961h365.127c4.397,0,7.961-3.563,7.961-7.961V325.191h17.513
			c4.397,0,7.961-3.563,7.961-7.961v-50.948C471.999,261.886,468.435,258.322,464.038,258.322z M355.521,18.055l81.441,27.548
			l-17.381,51.384h-90.76L355.521,18.055z M295.006,53.82l1.949,43.167h-86.062l-1.774-39.289L295.006,53.82z M200.304,29.747
			l3.201,12.268c-1.813,0.082-3.746-0.011-5.469,0.629c-3.206,1.191-5.336,4.401-5.182,7.819l2.101,46.524h-65.961L117.115,51.45
			L200.304,29.747z M115.363,180.838h85.975v35.027h-85.975V180.838z M269.269,309.27H188.07c-4.397,0-7.961,3.563-7.961,7.961
			c0,4.397,3.563,7.961,7.961,7.961h81.198v170.888H81.398v-43.518h127.9c4.397,0,7.961-3.563,7.961-7.961v-50.948
			c0-4.397-3.563-7.961-7.961-7.961h-127.9v-60.501h64.216c4.397,0,7.961-3.563,7.961-7.961c0-4.397-3.563-7.961-7.961-7.961h-89.69
			v-35.027h213.344V309.27z M81.398,436.639v-35.027h119.94v35.027H81.398z M269.269,258.322H115.363v-26.535h93.935
			c4.397,0,7.961-3.563,7.961-7.961v-50.948c0-4.397-3.563-7.961-7.961-7.961h-93.935v-52.009h153.905V258.322z M430.604,496.079
			H285.19V325.191h145.414V496.079z M456.078,309.27H285.19v-35.027h170.888V309.27z"/>
	</g>
</g>
<g>
	<g>
		<path d="M404.599,343.235h-93.404c-4.397,0-7.961,3.563-7.961,7.961v25.474c0,13.754,11.19,24.943,24.943,24.943h59.439
			c13.754,0,24.943-11.189,24.943-24.943v-25.474C412.56,346.798,408.996,343.235,404.599,343.235z M396.638,376.669
			c0,4.975-4.047,9.022-9.022,9.022h-59.439c-4.975,0-9.022-4.047-9.022-9.022v-17.513h77.483V376.669z"/>
	</g>
</g>
<g>
	<g>
		<path d="M404.599,130.952h-93.404c-4.397,0-7.961,3.563-7.961,7.961v25.474c0,13.754,11.189,24.943,24.943,24.943h59.439
			c13.754,0,24.943-11.189,24.943-24.943v-25.474C412.56,134.515,408.996,130.952,404.599,130.952z M396.638,164.386
			c0,4.975-4.047,9.022-9.022,9.022h-59.439c-4.975,0-9.022-4.047-9.022-9.022v-17.513h77.483V164.386z"/>
	</g>
</g>
<g>
	<g>
		<path d="M175.333,130.952h-42.457c-4.397,0-7.961,3.563-7.961,7.961c0,4.397,3.563,7.961,7.961,7.961h42.457
			c4.397,0,7.961-3.563,7.961-7.961C183.294,134.515,179.73,130.952,175.333,130.952z"/>
	</g>
</g>
<g>
	<g>
		<path d="M158.351,351.726h-50.948c-4.397,0-7.961,3.563-7.961,7.961c0,4.397,3.563,7.961,7.961,7.961h50.948
			c4.397,0,7.961-3.563,7.961-7.961C166.311,355.289,162.747,351.726,158.351,351.726z"/>
	</g>
</g>
<g>
	<g>
		<path d="M209.299,351.726h-25.474c-4.397,0-7.961,3.563-7.961,7.961c0,4.397,3.563,7.961,7.961,7.961h25.474
			c4.397,0,7.961-3.563,7.961-7.961C217.259,355.289,213.695,351.726,209.299,351.726z"/>
	</g>
</g>   </symbol>
  
   </defs>
</svg>