<svg aria-hidden="true" style="position: absolute; width: 0; height: 0; overflow: hidden;" version="1.1" xmlns="http://www.w3.org/2000/svg" xmlns:xlink="http://www.w3.org/1999/xlink">
<defs>
<symbol id="icon-burger" viewBox="0 0 32 32">
<path d="M4.571 8c0-0.631 0.512-1.143 1.143-1.143h21.714c0.631 0 1.143 0.512 1.143 1.143s-0.512 1.143-1.143 1.143h-21.714c-0.631 0-1.143-0.512-1.143-1.143z"></path>
<path d="M4.571 16c0-0.631 0.512-1.143 1.143-1.143l12.571 0c0.631 0 1.143 0.512 1.143 1.143s-0.512 1.143-1.143 1.143l-12.571-0c-0.631 0-1.143-0.512-1.143-1.143z"></path>
<path d="M5.714 22.857c-0.631 0-1.143 0.512-1.143 1.143s0.512 1.143 1.143 1.143h19.429c0.631 0 1.143-0.512 1.143-1.143s-0.512-1.143-1.143-1.143h-19.429z"></path>
</symbol>
<symbol id="icon-desk" viewBox="0 0 32 32">
<path d="M25.067 18.667h1.067c0.32 0 0.533-0.213 0.533-0.533s-0.213-0.533-0.533-0.533h-1.067c-0.32 0-0.533 0.213-0.533 0.533s0.213 0.533 0.533 0.533z"></path>
<path d="M25.067 24h1.067c0.32 0 0.533-0.213 0.533-0.533s-0.213-0.533-0.533-0.533h-1.067c-0.32 0-0.533 0.213-0.533 0.533s0.213 0.533 0.533 0.533z"></path>
<path d="M25.067 29.333h1.067c0.32 0 0.533-0.213 0.533-0.533s-0.213-0.533-0.533-0.533h-1.067c-0.32 0-0.533 0.213-0.533 0.533s0.213 0.533 0.533 0.533z"></path>
<path d="M31.467 12.8h-4.853v-0.373c0-0.693-0.533-1.227-1.227-1.227h-0.32v-0.533h5.333c0.587 0 1.067-0.48 1.12-1.067v-8.533c0-0.587-0.48-1.067-1.067-1.067h-13.867c-0.587 0-1.067 0.48-1.067 1.067v4.267h-6.88c-0.96 0-1.92 0.427-2.507 1.173-0.64 0.693-0.907 1.653-0.8 2.613l0.475 3.68h-5.275c-0.32 0-0.533 0.213-0.533 0.533v2.133c0 0.32 0.213 0.533 0.533 0.533h0.533v15.467c0 0.32 0.213 0.533 0.533 0.533h2.133c0.32 0 0.533-0.213 0.533-0.533v-15.467h1.965c0.322 1.566 1.696 2.667 3.262 2.667h2.24v1.067h-2.667c-1.493 0-2.667 1.173-2.667 2.667 0 0.32 0.213 0.533 0.533 0.533h4.8v3.2c-0.907 0-1.6 0.693-1.6 1.6v1.067h-2.133c-0.32 0-0.533 0.213-0.533 0.533v1.6c0 0.32 0.213 0.533 0.533 0.533h0.533c0 0.32 0.213 0.533 0.533 0.533s0.533-0.213 0.533-0.533h5.333c0 0.32 0.213 0.533 0.533 0.533s0.533-0.213 0.533-0.533h0.533c0.32 0 0.533-0.213 0.533-0.533v-1.6c0-0.32-0.213-0.533-0.533-0.533h-2.133v-1.067c0-0.907-0.693-1.6-1.6-1.6v-3.2h4.8c0.32 0 0.533-0.213 0.533-0.533 0-1.493-1.173-2.667-2.667-2.667h-2.667v-1.067h2.347c1.566 0 2.939-1.101 3.262-2.667h1.858v15.467c0 0.32 0.213 0.533 0.533 0.533h9.6c0.32 0 0.533-0.213 0.533-0.533v-15.467h0.533c0.32 0 0.533-0.213 0.533-0.533v-2.133c0-0.32-0.213-0.533-0.533-0.533zM16 30.4h-7.467v-0.533h7.467v0.533zM13.333 27.733v1.067h-2.133v-1.067c0-0.32 0.267-0.533 0.533-0.533h1.067c0.32 0 0.533 0.267 0.533 0.533zM7.573 21.867c0.213-0.64 0.8-1.067 1.493-1.067h2.667v1.067h-4.16zM15.52 20.8c0.693 0 1.28 0.427 1.493 1.067h-4.213v-1.067h2.72zM18.829 12.8l0.273-2.133h2.765v0.533h-0.373c-0.693 0-1.227 0.533-1.227 1.227v0.373h-1.438zM25.44 12.267c0.107 0 0.16 0.053 0.16 0.16v0.373h-4.213v-0.373c0-0.107 0.053-0.16 0.16-0.16h3.893zM24 11.2h-1.067v-0.533h1.067v0.533zM24.533 9.6h-5.28l0.107-0.48c0-0.213 0-0.373 0-0.587h11.040v1.067h-5.867zM30.4 1.067v6.347h-11.305c-0.137-0.353-0.332-0.682-0.588-0.96-0.257-0.279-0.558-0.514-0.888-0.696-0.020-0.012-0.041-0.023-0.062-0.034-0.012-0.006-0.024-0.013-0.036-0.019-0.149-0.078-0.303-0.143-0.46-0.195-0.171-0.058-0.348-0.103-0.527-0.133v-4.311h13.867zM3.2 30.933h-1.067v-14.933h1.067v14.933zM3.733 14.933h-2.667v-1.067h4.853l0.16 1.067h-2.347zM15.147 17.6h-5.653c-1.12 0-2.080-0.853-2.24-1.973l-0.853-6.667c-0.107-0.693 0.107-1.333 0.533-1.813s1.067-0.747 1.707-0.747h7.36c0.64 0 1.28 0.267 1.707 0.747 0.427 0.533 0.64 1.173 0.533 1.813l-0.853 6.667c-0.16 1.12-1.12 1.973-2.24 1.973zM29.867 25.6h-8.533v-4.267h8.533v4.267zM29.867 30.933h-8.533v-4.267h8.533v4.267zM29.867 20.267h-8.533v-4.267h8.533v4.267zM30.933 14.933h-12.373l0.16-1.067h12.213v1.067z"></path>
<path d="M17.6 3.733c0.16 0 0.267-0.053 0.373-0.16l1.067-1.067c0.213-0.213 0.213-0.533 0-0.747s-0.533-0.213-0.747 0l-1.067 1.067c-0.213 0.213-0.213 0.533 0 0.747 0.107 0.107 0.213 0.16 0.373 0.16z"></path>
<path d="M18.293 5.173c0.107 0.107 0.213 0.16 0.373 0.16s0.267-0.053 0.373-0.16l2.133-2.133c0.213-0.213 0.213-0.533 0-0.747s-0.533-0.213-0.747 0l-2.133 2.133c-0.213 0.213-0.213 0.533 0 0.747z"></path>
</symbol>
<symbol id="icon-planting-flower" viewBox="0 0 32 32">
<path d="M29.696 26.272c-0.096-0.064-0.192-0.128-0.288-0.192s-0.256-0.224-0.384-0.384c-0.256-0.288-0.544-0.608-0.96-0.768-0.288-0.096-0.608-0.064-0.896-0.032-0.224 0.032-0.448 0.064-0.64 0.032-0.16-0.032-0.32-0.16-0.512-0.288-0.256-0.192-0.576-0.384-0.928-0.416-0.32-0.032-0.608 0.064-0.896 0.16-0.224 0.064-0.448 0.16-0.608 0.128-0.16 0-0.352-0.096-0.576-0.224-0.288-0.128-0.576-0.288-0.928-0.288s-0.64 0.16-0.928 0.288c-0.032 0-0.032 0.032-0.064 0.032 0.448-0.544 0.864-1.12 1.184-1.728l1.056-2.048c0.032-0.064 0.032-0.16 0.032-0.256s-0.096-0.16-0.16-0.192l-1.984-1.024 2.368-4.544c0.032-0.096 0.128-0.16 0.224-0.16l0.96-0.16c0.288-0.064 0.544-0.224 0.704-0.512l1.024-1.984c0.128-0.224 0.128-0.48 0.064-0.736s-0.256-0.448-0.48-0.576l-2.88-1.44c-0.224-0.128-0.48-0.128-0.736-0.064s-0.448 0.256-0.576 0.48l-1.024 1.984c-0.128 0.256-0.128 0.576 0 0.864l0.416 0.864c0.032 0.096 0.032 0.192 0 0.288l-2.368 4.544-1.984-1.024c-0.16-0.096-0.352-0.032-0.416 0.128l-1.056 2.048c-0.928 1.792-1.216 3.872-0.864 5.888-0.064 0-0.16 0-0.224-0.032-0.16-0.032-0.32-0.16-0.512-0.288-0.256-0.192-0.576-0.384-0.928-0.416-0.32-0.032-0.608 0.064-0.896 0.16-0.224 0.064-0.416 0.16-0.608 0.128-0.16 0-0.352-0.096-0.576-0.224-0.096-0.032-0.192-0.096-0.288-0.128v-4.832l1.088-1.088c0.352-0.032 1.728-0.256 2.336-1.536 0 0 0 0 0 0 0.672-1.344 0.32-3.552 0.288-3.648s-0.096-0.192-0.16-0.224c-0.096-0.032-0.192-0.032-0.288 0s-2.048 1.088-2.72 2.432c-0.544 1.056-0.192 2.112 0.032 2.56l-0.576 0.608v-4.736c0.512-0.224 0.832-0.928 0.96-1.632 0.448 0.32 0.992 0.544 1.44 0.544 0.256 0 0.48-0.064 0.672-0.256 0 0 0 0 0 0 0.48-0.48 0.192-1.408-0.288-2.112 0.832-0.16 1.696-0.608 1.696-1.28s-0.864-1.12-1.696-1.28c0.48-0.704 0.768-1.632 0.288-2.112s-1.408-0.192-2.112 0.288c-0.16-0.832-0.608-1.696-1.28-1.696s-1.12 0.864-1.28 1.696c-0.704-0.48-1.632-0.768-2.112-0.288s-0.192 1.408 0.288 2.112c-0.832 0.16-1.696 0.608-1.696 1.28s0.864 1.12 1.696 1.28c-0.48 0.704-0.768 1.632-0.288 2.112 0.16 0.16 0.416 0.256 0.672 0.256 0.448 0 0.992-0.224 1.44-0.544 0.128 0.704 0.48 1.408 0.96 1.632v6.336l-0.576-0.576c0.224-0.48 0.544-1.504 0.032-2.56-0.672-1.344-2.624-2.4-2.72-2.432-0.096-0.064-0.192-0.064-0.288 0-0.096 0.032-0.16 0.128-0.16 0.224s-0.352 2.304 0.288 3.648c0 0 0 0 0 0 0.64 1.248 2.016 1.472 2.336 1.536l1.088 1.088v3.040c-0.352 0-0.64 0.16-0.928 0.288-0.192 0.096-0.416 0.192-0.576 0.224-0.192 0-0.384-0.064-0.608-0.128-0.288-0.096-0.576-0.192-0.896-0.16-0.352 0.064-0.64 0.256-0.928 0.416-0.192 0.128-0.384 0.256-0.512 0.288-0.192 0.032-0.416 0-0.64-0.032-0.288-0.032-0.608-0.096-0.896 0.032-0.416 0.16-0.704 0.48-0.96 0.768-0.128 0.16-0.256 0.288-0.384 0.384-0.096 0.064-0.192 0.128-0.288 0.192-0.512 0.32-1.024 0.64-1.024 1.248 0 0.192 0.128 0.32 0.32 0.32h28.8c0.192 0 0.32-0.128 0.32-0.32 0-0.576-0.512-0.928-1.024-1.248zM11.68 15.552c0.416-0.832 1.44-1.536 2.016-1.92 0.064 0.672 0.096 1.952-0.288 2.784v0c-0.416 0.832-1.28 1.088-1.696 1.152-0.16-0.352-0.416-1.184-0.032-2.016zM7.072 18.016v0c-0.416-0.832-0.352-2.112-0.288-2.784 0.576 0.352 1.632 1.088 2.016 1.92 0.416 0.832 0.128 1.664-0.032 2.016-0.416-0.064-1.312-0.32-1.696-1.152zM10.688 9.92c-0.032 0.032-0.064 0.032-0.096 0.032-0.224 0.064-0.448 0.064-0.704 0-0.032 0-0.064-0.032-0.096-0.032 0 0 0 0 0 0s0 0 0 0c-0.224-0.096-0.384-0.256-0.48-0.48 0 0 0 0 0 0s0 0 0 0c-0.032-0.032-0.032-0.064-0.032-0.096 0 0 0 0 0 0-0.032-0.128-0.064-0.224-0.064-0.352s0.032-0.224 0.064-0.352c0-0.032 0.032-0.064 0.032-0.096 0 0 0 0 0 0s0 0 0 0c0.096-0.224 0.256-0.384 0.48-0.48 0 0 0 0 0 0s0 0 0 0c0.032-0.032 0.064-0.032 0.096-0.032 0.224-0.064 0.448-0.064 0.704 0 0.032 0 0.064 0.032 0.096 0.032 0 0 0 0 0 0s0 0 0 0c0.224 0.096 0.384 0.256 0.48 0.48 0 0 0 0 0 0s0 0 0 0c0.032 0.032 0.032 0.064 0.032 0.096 0.032 0.128 0.064 0.224 0.064 0.352s-0.032 0.224-0.064 0.352c0 0.032-0.032 0.064-0.032 0.096 0 0 0 0 0 0s0 0 0 0c-0.096 0.192-0.256 0.352-0.48 0.48 0 0 0 0 0 0s0 0 0 0zM13.184 11.904v0c-0.16 0.16-0.96-0.032-1.6-0.576 0-0.032 0-0.032 0-0.064 0-0.064 0-0.16-0.032-0.224 0-0.032 0-0.064 0-0.096 0-0.064-0.032-0.128-0.032-0.16s0-0.064-0.032-0.096-0.032-0.096-0.064-0.16c0-0.032 0-0.032-0.032-0.064-0.032-0.064-0.064-0.128-0.096-0.192 0 0 0 0 0 0 0.096-0.064 0.16-0.128 0.224-0.224 0 0 0 0 0 0 0.064 0.032 0.128 0.064 0.192 0.096 0.032 0 0.032 0 0.064 0.032 0.064 0.032 0.096 0.032 0.16 0.064 0.032 0 0.064 0 0.096 0.032 0.064 0 0.096 0.032 0.16 0.032 0.032 0 0.064 0 0.096 0 0.064 0 0.128 0 0.224 0.032 0.032 0 0.032 0 0.064 0 0.576 0.608 0.768 1.376 0.608 1.568zM14.4 8.96c0 0.256-0.768 0.704-1.664 0.704 0 0-0.032 0-0.032 0s-0.032 0-0.032 0c-0.096 0-0.192 0-0.288-0.032-0.032 0-0.064 0-0.064 0-0.064 0-0.128-0.032-0.16-0.032s-0.064 0-0.064-0.032c-0.064-0.032-0.096-0.032-0.128-0.064 0 0-0.032-0.032-0.032-0.032s0 0 0 0c0.064-0.16 0.096-0.352 0.096-0.512s-0.032-0.352-0.096-0.512c0 0 0 0 0 0s0.032-0.032 0.032-0.032 0.096-0.032 0.128-0.064c0.032 0 0.032-0.032 0.064-0.032 0.064 0 0.096-0.032 0.16-0.032 0.032 0 0.064 0 0.064 0 0.096 0 0.192-0.032 0.288-0.032 0 0 0.032 0 0.032 0s0.032 0 0.032 0c0.896 0 1.664 0.448 1.664 0.704zM13.184 6.016c0.16 0.16-0.032 0.96-0.576 1.6-0.032 0-0.064 0-0.064 0-0.064 0-0.16 0-0.224 0.032-0.032 0-0.064 0-0.096 0-0.064 0-0.128 0.032-0.16 0.032s-0.064 0-0.096 0.032-0.096 0.032-0.16 0.064c-0.032 0-0.032 0-0.064 0.032-0.064 0.032-0.128 0.064-0.192 0.096 0 0 0 0 0 0-0.064-0.096-0.128-0.16-0.224-0.224 0 0 0 0 0 0 0.032-0.064 0.064-0.128 0.096-0.192 0-0.032 0-0.032 0.032-0.064 0.032-0.064 0.032-0.096 0.064-0.16 0-0.032 0-0.064 0.032-0.096 0-0.064 0.032-0.096 0.032-0.16 0-0.032 0-0.064 0-0.096 0-0.064 0-0.128 0.032-0.224 0-0.032 0-0.032 0-0.064 0.608-0.576 1.376-0.768 1.568-0.608zM10.24 4.8c0.256 0 0.704 0.768 0.704 1.664 0 0 0 0.032 0 0.032s0 0.032 0 0.032c0 0.096 0 0.192-0.032 0.288 0 0.032 0 0.064 0 0.064 0 0.064-0.032 0.128-0.032 0.16s0 0.064-0.032 0.064c-0.032 0.064-0.032 0.096-0.064 0.128 0 0 0 0.032-0.032 0.032 0 0 0 0 0 0-0.16-0.064-0.352-0.096-0.512-0.096s-0.352 0.032-0.512 0.096c0 0 0 0 0 0s-0.032-0.032-0.032-0.032-0.064-0.096-0.064-0.128c0-0.032-0.032-0.032-0.032-0.064 0-0.064-0.032-0.096-0.032-0.16 0-0.032 0-0.064 0-0.064 0-0.096-0.032-0.192-0.032-0.288 0 0 0-0.032 0-0.032s0-0.032 0-0.032c0-0.896 0.448-1.664 0.704-1.664zM7.296 6.016c0.16-0.16 0.96 0.032 1.6 0.576 0 0.032 0 0.032 0 0.064 0 0.064 0 0.16 0.032 0.224 0 0.032 0 0.064 0 0.096 0 0.064 0.032 0.128 0.032 0.16s0 0.064 0.032 0.096 0.032 0.096 0.064 0.16c0 0.032 0 0.032 0.032 0.064 0.032 0.064 0.064 0.128 0.096 0.192 0 0 0 0 0 0-0.096 0.064-0.16 0.128-0.224 0.224 0 0 0 0 0 0-0.064-0.032-0.128-0.064-0.192-0.096-0.032 0-0.032 0-0.064-0.032-0.064-0.032-0.096-0.032-0.16-0.064-0.032 0-0.064 0-0.096-0.032-0.064 0-0.096-0.032-0.16-0.032-0.032 0-0.064 0-0.096 0-0.064 0-0.128 0-0.224-0.032-0.032 0-0.032 0-0.064 0-0.576-0.608-0.768-1.376-0.608-1.568zM6.080 8.96c0-0.256 0.768-0.704 1.664-0.704 0 0 0.032 0 0.032 0s0.032 0 0.032 0c0.096 0 0.192 0 0.288 0.032 0.032 0 0.064 0 0.064 0 0.064 0 0.128 0.032 0.16 0.032s0.064 0 0.064 0.032c0.064 0.032 0.096 0.032 0.128 0.064 0 0 0.032 0.032 0.032 0.032s0 0 0 0c-0.064 0.16-0.096 0.352-0.096 0.512s0.032 0.352 0.096 0.512c0 0 0 0 0 0s-0.032 0.032-0.032 0.032-0.096 0.032-0.128 0.064c-0.032 0-0.032 0.032-0.064 0.032-0.064 0-0.096 0.032-0.16 0.032-0.032 0-0.064 0-0.064 0-0.096 0-0.192 0.032-0.288 0.032 0 0-0.032 0-0.032 0s-0.032 0-0.032 0c-0.896 0-1.664-0.448-1.664-0.704zM7.296 11.904c-0.16-0.16 0.032-0.96 0.576-1.6 0.032 0 0.064 0 0.064 0 0.064 0 0.16 0 0.224-0.032 0.032 0 0.064 0 0.096 0 0.064 0 0.128-0.032 0.16-0.032s0.064 0 0.096-0.032 0.096-0.032 0.16-0.064c0.032 0 0.032 0 0.064-0.032 0.064-0.032 0.128-0.064 0.192-0.096 0 0 0 0 0 0 0.064 0.096 0.128 0.16 0.224 0.224 0 0 0 0 0 0-0.032 0.064-0.064 0.128-0.096 0.192 0 0.032 0 0.032-0.032 0.064-0.032 0.064-0.032 0.096-0.064 0.16 0 0.032 0 0.064-0.032 0.096 0 0.064-0.032 0.096-0.032 0.16 0 0.032 0 0.064 0 0.096 0 0.064 0 0.128-0.032 0.224 0 0.032 0 0.032 0 0.064-0.608 0.576-1.408 0.768-1.568 0.608zM9.536 11.456c0 0 0-0.032 0-0.032s0-0.032 0-0.032c0-0.096 0-0.192 0.032-0.288 0-0.032 0-0.064 0-0.064 0-0.064 0.032-0.128 0.032-0.16s0-0.064 0.032-0.064c0.032-0.064 0.032-0.096 0.064-0.128 0 0 0-0.032 0.032-0.032 0 0 0 0 0 0 0.352 0.096 0.704 0.096 1.024 0 0 0 0 0 0 0s0.032 0.032 0.032 0.032 0.064 0.096 0.064 0.128c0 0.032 0.032 0.032 0.032 0.064 0 0.064 0.032 0.096 0.032 0.16 0 0.032 0 0.064 0 0.064 0 0.096 0.032 0.192 0.032 0.288 0 0 0 0.032 0 0.032s0 0.032 0 0.032c0 0.896-0.448 1.664-0.704 1.664s-0.704-0.768-0.704-1.664zM19.488 18.208l2.368-4.544c0.128-0.256 0.128-0.576 0-0.864l-0.416-0.864c-0.032-0.096-0.032-0.192 0-0.288l1.024-1.984c0.032-0.064 0.096-0.128 0.192-0.16s0.16-0.032 0.256 0.032l2.848 1.472c0.064 0.032 0.128 0.096 0.16 0.192s0.032 0.16-0.032 0.256l-1.024 1.984c-0.032 0.096-0.128 0.16-0.224 0.16l-0.96 0.16c-0.288 0.064-0.544 0.224-0.704 0.512l-2.368 4.544-0.32-0.16-0.8-0.448zM16 19.36l0.928-1.76 2.976 1.536 0.736 0.384c0 0 0 0 0 0l1.984 1.024-0.928 1.792c-0.416 0.768-0.928 1.472-1.568 2.112-0.064-0.032-0.096-0.032-0.16-0.064-0.288-0.096-0.576-0.192-0.896-0.16-0.352 0.064-0.64 0.256-0.928 0.448-0.192 0.128-0.384 0.256-0.512 0.288-0.192 0.032-0.416 0-0.64-0.032-0.288-0.032-0.608-0.096-0.896 0.032-0.032 0-0.064 0.032-0.096 0.064-0.032 0-0.064-0.032-0.096-0.064-0.224-0.096-0.448-0.064-0.672-0.064-0.384-1.888-0.096-3.84 0.768-5.536zM13.76 27.2h-11.68c0.128-0.128 0.32-0.256 0.576-0.416 0.096-0.064 0.192-0.128 0.32-0.192 0.16-0.128 0.32-0.288 0.48-0.48 0.224-0.256 0.448-0.512 0.704-0.608 0.16-0.064 0.352-0.032 0.576 0 0.256 0.032 0.576 0.096 0.896 0 0.256-0.064 0.512-0.224 0.736-0.384s0.448-0.288 0.64-0.32c0.16-0.032 0.384 0.064 0.608 0.128 0.256 0.096 0.544 0.192 0.864 0.16 0.288-0.032 0.544-0.16 0.8-0.288 0.224-0.128 0.448-0.224 0.64-0.224s0.416 0.096 0.64 0.224c0.256 0.128 0.512 0.256 0.8 0.288 0.32 0.032 0.608-0.096 0.864-0.16 0.224-0.064 0.448-0.16 0.608-0.128 0.192 0.032 0.416 0.192 0.64 0.32 0.224 0.16 0.48 0.32 0.736 0.384 0.32 0.064 0.608 0.032 0.896 0 0.224-0.032 0.448-0.064 0.576 0 0.256 0.096 0.48 0.352 0.704 0.608 0.16 0.192 0.32 0.352 0.48 0.48 0.096 0.064 0.192 0.128 0.32 0.192 0.256 0.16 0.448 0.288 0.576 0.416h-4zM18.496 27.2c-0.16-0.416-0.544-0.672-0.992-0.96-0.096-0.064-0.192-0.128-0.288-0.192s-0.224-0.224-0.384-0.384c-0.064-0.064-0.096-0.128-0.16-0.192 0.064 0 0.16 0.032 0.224 0.032 0.256 0.032 0.576 0.096 0.896 0 0.256-0.064 0.512-0.224 0.736-0.384s0.448-0.288 0.64-0.32c0.16-0.032 0.384 0.064 0.608 0.128 0.096 0.032 0.224 0.064 0.32 0.096 0 0 0 0 0 0 0.16 0.032 0.352 0.096 0.544 0.064 0.288-0.032 0.544-0.16 0.8-0.288 0.224-0.128 0.448-0.224 0.64-0.224s0.416 0.096 0.64 0.224c0.256 0.128 0.512 0.256 0.8 0.288 0.32 0.032 0.608-0.096 0.864-0.16 0.224-0.064 0.448-0.16 0.608-0.128 0.192 0.032 0.416 0.192 0.64 0.32 0.224 0.16 0.48 0.32 0.736 0.384 0.32 0.064 0.608 0.032 0.896 0 0.224-0.032 0.448-0.064 0.576 0 0.256 0.096 0.48 0.352 0.704 0.608 0.16 0.192 0.32 0.352 0.48 0.48 0.096 0.064 0.224 0.128 0.32 0.224 0.256 0.16 0.448 0.288 0.576 0.416h-11.424z"></path>
<path d="M22.88 12.384l0.576 0.288c0.128 0.064 0.288 0.096 0.448 0.096 0.352 0 0.672-0.192 0.864-0.512 0.128-0.224 0.128-0.48 0.064-0.736s-0.256-0.448-0.48-0.576l-0.576-0.288c-0.224-0.128-0.48-0.128-0.736-0.064s-0.448 0.256-0.576 0.48c-0.256 0.48-0.064 1.056 0.416 1.312zM23.008 11.36c0.032-0.064 0.096-0.128 0.192-0.16s0.16-0.032 0.256 0.032l0.576 0.288c0.064 0.032 0.128 0.096 0.16 0.192s0.032 0.16-0.032 0.256c-0.096 0.16-0.288 0.224-0.416 0.128l-0.576-0.288c-0.16-0.096-0.224-0.288-0.16-0.448z"></path>
</symbol>
<symbol id="icon-house" viewBox="0 0 32 32">
<path d="M30.72 11.2c0-0.032 0-0.032 0-0.064s0-0.032 0-0.064-0.032-0.032-0.032-0.032c0-0.032-0.032-0.032-0.032-0.064 0 0 0 0 0 0l-7.040-6.080c0 0-0.032 0-0.032-0.032-0.032 0-0.032-0.032-0.064-0.032s-0.032 0-0.064 0c0 0-0.032 0-0.032 0h-9.984c-0.032 0-0.064 0-0.128 0.032 0 0-0.032 0.032-0.032 0.032-0.032 0-0.032 0.032-0.064 0.032l-4.16 3.584c-0.032-0.16-0.064-0.352-0.096-0.544-0.032-0.32-0.064-0.64-0.224-0.928-0.224-0.384-0.544-0.64-0.832-0.832-0.16-0.096-0.288-0.192-0.384-0.288s-0.192-0.192-0.256-0.288c-0.128-0.128-0.224-0.256-0.352-0.384-0.16-0.224-0.448-0.448-0.832-0.448-0.512 0-0.864 0.384-1.184 0.768-0.096 0.096-0.16 0.192-0.256 0.288s-0.224 0.192-0.384 0.32-0.608 0.448-0.832 0.832c-0.16 0.288-0.192 0.608-0.224 0.896-0.032 0.256-0.064 0.48-0.128 0.704-0.064 0.16-0.192 0.352-0.32 0.544-0.192 0.256-0.384 0.512-0.48 0.864-0.096 0.32-0.064 0.64-0.064 0.928 0 0.256 0.032 0.48 0 0.672s-0.16 0.384-0.256 0.608c-0.16 0.288-0.288 0.544-0.352 0.896-0.064 0.32 0 0.64 0.064 0.96 0.032 0.224 0.096 0.448 0.064 0.672s-0.096 0.416-0.192 0.672c-0.16 0.256-0.256 0.544-0.256 0.864 0 0.288 0.128 0.512 0.224 0.704 0.064 0.128 0.128 0.256 0.128 0.352 0 0.128-0.032 0.256-0.096 0.416-0.064 0.224-0.16 0.448-0.096 0.704 0.064 0.288 0.224 0.512 0.384 0.672 0.096 0.096 0.16 0.192 0.192 0.288s0.032 0.256 0.032 0.416c0 0.224-0.032 0.512 0.128 0.736 0.16 0.288 0.448 0.416 0.672 0.512 0.128 0.064 0.224 0.096 0.288 0.16s0.128 0.192 0.224 0.32c0.128 0.224 0.256 0.48 0.544 0.608 0.128 0.064 0.256 0.096 0.384 0.096s0.256-0.032 0.384-0.032c0.032 0 0.064 0 0.064 0l-0.128 2.72h-3.008c-0.192 0-0.32 0.128-0.32 0.32v1.6c0 0.192 0.128 0.32 0.32 0.32h28.8c0.192 0 0.32-0.128 0.32-0.32v-15.68c0 0 0 0 0 0zM20.8 24.96v-5.44h4.48v5.44h-4.48zM10.56 24.96v-6.4h2.56v6.4h-2.56zM13.76 18.56h2.56v6.4h-2.56v-6.4zM16.64 17.92h-6.4c-0.192 0-0.32 0.128-0.32 0.32v6.72h-3.2v-11.52h13.44v11.52h-3.2v-6.72c0-0.192-0.128-0.32-0.32-0.32zM13.44 5.536l6.176 5.344h-12.352l6.176-5.344zM23.232 5.44l6.304 5.44h-8.928l-6.304-5.44h8.928zM6.72 12.8v-1.28h13.44v1.28h-13.44zM20.8 13.44h4.48v5.44h-4.48v-5.44zM25.92 13.44h4.16v5.44h-4.16v-5.44zM20.8 12.8v-1.28h9.28v1.28h-9.28zM25.92 19.52h4.16v5.44h-4.16v-5.44zM4.544 21.536c-0.16 0.032-0.32 0.064-0.416 0-0.096-0.032-0.16-0.192-0.256-0.32-0.096-0.16-0.192-0.32-0.32-0.448s-0.288-0.192-0.448-0.288c-0.16-0.064-0.32-0.16-0.384-0.256-0.032-0.064-0.032-0.224-0.032-0.384 0-0.192 0-0.416-0.064-0.64-0.064-0.192-0.192-0.352-0.32-0.48s-0.224-0.256-0.256-0.384c0-0.096 0.032-0.224 0.096-0.384 0.064-0.192 0.128-0.416 0.128-0.672 0-0.224-0.128-0.416-0.224-0.576-0.064-0.16-0.128-0.288-0.128-0.416 0-0.192 0.096-0.448 0.192-0.672 0.096-0.256 0.192-0.544 0.224-0.832s-0.032-0.576-0.096-0.832c-0.064-0.256-0.096-0.512-0.064-0.736s0.16-0.448 0.288-0.672c0.128-0.256 0.256-0.48 0.32-0.768s0.032-0.576 0.032-0.864c-0.032-0.256-0.032-0.512 0.032-0.704 0.064-0.224 0.224-0.448 0.384-0.672s0.32-0.448 0.416-0.672c0.096-0.288 0.16-0.576 0.192-0.832s0.064-0.512 0.16-0.672c0.128-0.256 0.416-0.448 0.64-0.608 0.16-0.128 0.32-0.224 0.48-0.384 0.096-0.096 0.192-0.224 0.288-0.32 0.256-0.288 0.48-0.544 0.704-0.544 0.128 0 0.256 0.064 0.416 0.224 0.096 0.096 0.192 0.224 0.32 0.32 0.096 0.096 0.192 0.224 0.288 0.32 0.128 0.128 0.288 0.256 0.448 0.384 0.256 0.192 0.512 0.352 0.64 0.608 0.096 0.16 0.128 0.416 0.16 0.672 0.032 0.288 0.064 0.544 0.16 0.832 0 0.032 0.032 0.064 0.032 0.096l-2.304 1.92c-0.064 0-0.128-0.032-0.192-0.032-0.512 0-0.896 0.384-0.928 0.864l-0.416 9.792c-0.064 0.032-0.128 0.032-0.192 0.032zM5.792 11.744c0-0.128 0.128-0.256 0.288-0.256v13.472h-0.832l0.544-13.216zM1.92 26.56v-0.96h28.16v0.96h-28.16z"></path>
</symbol>
<symbol id="icon-boxes" viewBox="0 0 32 32">
<path d="M29.002 16.145h-1.095v-1.625c0-0.275-0.223-0.498-0.498-0.498s-0.498 0.223-0.498 0.498v1.625h-9.088v-9.088h9.088v4.809c0 0.275 0.223 0.498 0.498 0.498s0.498-0.223 0.498-0.498v-5.307c0-0.275-0.223-0.498-0.498-0.498h-0.136l1.138-3.364c0.087-0.257-0.055-0.544-0.312-0.631l-6.033-2.041c-0.26-0.088-0.543 0.052-0.631 0.312l-1.888 5.58-0.14-3.097c-0.012-0.272-0.249-0.485-0.519-0.475l-5.155 0.233-0.379-1.453c-0.069-0.266-0.341-0.425-0.607-0.356l-6.162 1.608c-0.266 0.069-0.425 0.341-0.356 0.607l0.803 3.076h-0.321c-0.275 0-0.498 0.223-0.498 0.498v9.586h-3.217c-0.275 0-0.498 0.223-0.498 0.498v3.184c0 0.275 0.223 0.498 0.498 0.498h1.095v11.178c0 0.275 0.223 0.498 0.498 0.498h22.82c0.275 0 0.498-0.223 0.498-0.498v-11.178h1.095c0.275 0 0.498-0.223 0.498-0.498v-3.184c0-0.275-0.223-0.497-0.498-0.497zM22.22 1.128l5.090 1.722-1.086 3.212h-5.672l1.669-4.933zM18.438 3.364l0.122 2.698h-5.379l-0.111-2.456 5.368-0.242zM12.519 1.859l0.2 0.767c-0.113 0.005-0.234-0.001-0.342 0.039-0.2 0.074-0.334 0.275-0.324 0.489l0.131 2.908h-4.123l-0.742-2.846 5.199-1.356zM7.21 11.302h5.373v2.189h-5.373v-2.189zM16.829 19.329h-5.075c-0.275 0-0.498 0.223-0.498 0.498s0.223 0.498 0.498 0.498h5.075v10.681h-11.742v-2.72h7.994c0.275 0 0.498-0.223 0.498-0.498v-3.184c0-0.275-0.223-0.498-0.498-0.498h-7.994v-3.781h4.014c0.275 0 0.498-0.223 0.498-0.498s-0.223-0.498-0.498-0.498h-5.606v-2.189h13.334v2.189zM5.087 27.29v-2.189h7.496v2.189h-7.496zM16.829 16.145h-9.619v-1.658h5.871c0.275 0 0.498-0.223 0.498-0.498v-3.184c0-0.275-0.223-0.498-0.498-0.498h-5.871v-3.251h9.619v9.088zM26.913 31.005h-9.088v-10.68h9.088v10.681zM28.505 19.329h-10.681v-2.189h10.681v2.189z"></path>
<path d="M25.287 21.452h-5.838c-0.275 0-0.498 0.223-0.498 0.498v1.592c0 0.86 0.699 1.559 1.559 1.559h3.715c0.86 0 1.559-0.699 1.559-1.559v-1.592c0-0.275-0.223-0.498-0.497-0.498zM24.79 23.542c0 0.311-0.253 0.564-0.564 0.564h-3.715c-0.311 0-0.564-0.253-0.564-0.564v-1.095h4.843v1.095z"></path>
<path d="M25.287 8.184h-5.838c-0.275 0-0.498 0.223-0.498 0.498v1.592c0 0.86 0.699 1.559 1.559 1.559h3.715c0.86 0 1.559-0.699 1.559-1.559v-1.592c0-0.275-0.223-0.498-0.497-0.498zM24.79 10.274c0 0.311-0.253 0.564-0.564 0.564h-3.715c-0.311 0-0.564-0.253-0.564-0.564v-1.095h4.843v1.095z"></path>
<path d="M10.958 8.184h-2.654c-0.275 0-0.498 0.223-0.498 0.498s0.223 0.498 0.498 0.498h2.654c0.275 0 0.498-0.223 0.498-0.498s-0.223-0.498-0.498-0.498z"></path>
<path d="M9.897 21.983h-3.184c-0.275 0-0.498 0.223-0.498 0.498s0.223 0.498 0.498 0.498h3.184c0.275 0 0.498-0.223 0.498-0.498s-0.223-0.498-0.498-0.498z"></path>
<path d="M13.081 21.983h-1.592c-0.275 0-0.498 0.223-0.498 0.498s0.223 0.498 0.498 0.498h1.592c0.275 0 0.498-0.223 0.498-0.498s-0.223-0.498-0.498-0.498z"></path>
</symbol>
<symbol id="icon-burger-modal" viewBox="0 0 47 32">
<path stroke-linejoin="round" stroke-linecap="round" stroke-miterlimit="4" stroke-width="4.3636" d="M1.961 29.154h42.965M1.961 15.615h42.965M1.961 2.077h42.965"></path>
</symbol>
<symbol id="icon-modal-close" viewBox="0 0 32 32">
<path d="M32 3.223l-3.223-3.223-12.777 12.777-12.777-12.777-3.223 3.223 12.777 12.777-12.777 12.777 3.223 3.223 12.777-12.777 12.777 12.777 3.223-3.223-12.777-12.777 12.777-12.777z"></path>
</symbol>
</defs>
<defs>
<symbol id="icon-apartments" viewBox="0 0 32 32">
<path d="M31 27.644v-22.407h-9.038v-2.245h-11.925v2.245h-9.038v22.407h-1v1.364h32v-1.364h-1zM12.356 27.644h-9.991v-21.042h9.991v21.042zM18.28 27.644h-4.56v-2.366h4.56v2.366zM18.28 5.662h-1.568v2.171h1.568v1.33h-1.568v2.171h1.568v1.331h-1.568v2.171h1.568v1.33h-1.568v2.171h1.568v1.33h-1.568v2.17h1.568v2.161h-4.56v-2.161h1.568v-2.17h-1.568v-1.33h1.568v-2.171h-1.568v-1.33h1.568v-2.171h-1.568v-1.331h1.568v-2.171h-1.568v-1.33h1.568v-2.171h-1.568v-0.425h-2.403v-0.966h9.367v0.966h-2.403v0.425zM29.636 27.644h-9.991v-21.042h9.991v21.042z"></path>
<path d="M20.968 8.085h2.913v2.315h-2.913v-2.315z"></path>
<path d="M25.4 8.085h2.913v2.315h-2.913v-2.315z"></path>
<path d="M20.968 11.819h2.913v2.315h-2.913v-2.315z"></path>
<path d="M25.4 11.819h2.913v2.315h-2.913v-2.315z"></path>
<path d="M20.968 15.554h2.913v2.315h-2.913v-2.315z"></path>
<path d="M25.4 15.554h2.913v2.315h-2.913v-2.315z"></path>
<path d="M20.968 19.288h2.913v2.315h-2.913v-2.315z"></path>
<path d="M25.4 19.288h2.913v2.315h-2.913v-2.315z"></path>
<path d="M20.968 23.023h2.913v2.315h-2.913v-2.315z"></path>
<path d="M25.4 23.023h2.913v2.315h-2.913v-2.315z"></path>
<path d="M3.688 8.085h2.913v2.315h-2.913v-2.315z"></path>
<path d="M8.119 8.085h2.913v2.315h-2.913v-2.315z"></path>
<path d="M3.688 11.819h2.913v2.315h-2.913v-2.315z"></path>
<path d="M8.119 11.819h2.913v2.315h-2.913v-2.315z"></path>
<path d="M3.688 15.554h2.913v2.315h-2.913v-2.315z"></path>
<path d="M8.119 15.554h2.913v2.315h-2.913v-2.315z"></path>
<path d="M3.688 19.288h2.913v2.315h-2.913v-2.315z"></path>
<path d="M8.119 19.288h2.913v2.315h-2.913v-2.315z"></path>
<path d="M3.688 23.023h2.913v2.315h-2.913v-2.315z"></path>
<path d="M8.119 23.023h2.913v2.315h-2.913v-2.315z"></path>
</symbol>
</defs>
</svg>
